<svg width="100" height="56" viewBox="0 0 100 56" fill="none" xmlns="http://www.w3.org/2000/svg">
<path d="M26.4305 16.5709C25.5599 17.6112 24.1669 18.4318 22.7739 18.3146C22.5997 16.9079 23.2817 15.4133 24.0798 14.4902C24.9504 13.4206 26.4741 12.6586 27.7075 12.6C27.8526 14.0653 27.2866 15.5012 26.4305 16.5709ZM27.6929 18.593C25.676 18.4757 23.9492 19.7505 22.9915 19.7505C22.0193 19.7505 20.5537 18.6516 18.9576 18.6809C16.8826 18.7102 14.9526 19.8971 13.8934 21.7873C11.7168 25.5677 13.3275 31.165 15.4315 34.2421C16.4617 35.7659 17.6951 37.4364 19.3203 37.3777C20.8585 37.3191 21.4679 36.3667 23.3253 36.3667C25.1971 36.3667 25.734 37.3777 27.3592 37.3484C29.0424 37.3191 30.1017 35.8246 31.132 34.3007C32.3073 32.5717 32.7862 30.8866 32.8152 30.7987C32.7862 30.7694 29.5648 29.5239 29.5358 25.7728C29.5068 22.6371 32.0751 21.1425 32.1912 21.0546C30.7402 18.886 28.4765 18.6516 27.6929 18.593ZM39.3449 14.3437V37.1873H42.8565V29.3774H47.7176C52.1578 29.3774 55.2776 26.3003 55.2776 21.8459C55.2776 17.3914 52.2158 14.3437 47.8336 14.3437H39.3449ZM42.8565 17.3328H46.905C49.9522 17.3328 51.6935 18.9739 51.6935 21.8605C51.6935 24.7471 49.9522 26.4029 46.8905 26.4029H42.8565V17.3328ZM61.6913 37.3631C63.8969 37.3631 65.9429 36.2348 66.8715 34.4472H66.9441V37.1873H70.1945V25.8168C70.1945 22.5199 67.5826 20.3952 63.5631 20.3952C59.8339 20.3952 57.0769 22.5492 56.9753 25.509H60.1386C60.3998 24.1024 61.6913 23.1793 63.4616 23.1793C65.6091 23.1793 66.8135 24.1903 66.8135 26.0512V27.3113L62.4313 27.5751C58.3538 27.8242 56.1482 29.5092 56.1482 32.4398C56.1482 35.3996 58.4264 37.3631 61.6913 37.3631ZM62.6344 34.6523C60.7626 34.6523 59.5727 33.7439 59.5727 32.3519C59.5727 30.9159 60.7191 30.0807 62.9102 29.9488L66.8135 29.6997V30.9892C66.8135 33.1285 65.0142 34.6523 62.6344 34.6523ZM74.5331 43.4C77.9576 43.4 79.5683 42.0813 80.9758 38.0811L87.1428 20.615H83.5732L79.4377 34.1102H79.3652L75.2296 20.615H71.5585L77.5078 37.2459L77.1886 38.2569C76.6517 39.9713 75.781 40.6306 74.2284 40.6306C73.9527 40.6306 73.4158 40.6013 73.1982 40.572V43.3121C73.4013 43.3707 74.2719 43.4 74.5331 43.4Z" fill="white"/>
</svg>
