<svg width="100" height="56" viewBox="0 0 100 56" fill="none" xmlns="http://www.w3.org/2000/svg">
<path d="M21.3753 29.6999C22.04 29.9009 23.4927 30.3401 23.7236 29.2776C23.9603 28.1912 22.5514 27.8293 21.864 27.6527C21.7871 27.633 21.7193 27.6156 21.6638 27.5997L21.2165 29.6527C21.2621 29.6656 21.3155 29.6818 21.3753 29.6999Z" fill="#F7931A"/>
<path d="M22.0021 26.7C22.5562 26.8693 23.765 27.2386 23.9756 26.2729C24.1906 25.2852 23.0158 24.9874 22.442 24.842C22.3775 24.8256 22.3205 24.8112 22.274 24.7979L21.8685 26.6599C21.9068 26.6709 21.9517 26.6846 22.0021 26.7Z" fill="#F7931A"/>
<path fill-rule="evenodd" clip-rule="evenodd" d="M20.064 35.7455C24.3506 36.8811 28.6918 34.1098 29.7604 29.5563C30.829 25.0024 28.2208 20.3896 23.9344 19.2544C19.6489 18.1191 15.3077 20.8906 14.2396 25.4447C13.1705 29.998 15.779 34.6102 20.064 35.7455ZM23.9519 24.145C24.9804 24.5506 25.7326 25.1587 25.5848 26.2897C25.4778 27.1176 25.0769 27.5184 24.5447 27.6589C25.2755 28.0946 25.6474 28.7626 25.2931 29.9207C24.8535 31.359 23.809 31.4804 22.42 31.1795L22.0828 32.7262L21.2683 32.4938L21.601 30.9678C21.3898 30.9077 21.1741 30.844 20.9518 30.7749L20.6179 32.3081L19.8043 32.0757L20.1414 30.526C20.0654 30.5038 19.9888 30.4809 19.9118 30.4579C19.796 30.4233 19.6791 30.3884 19.5607 30.3545L18.5006 30.0519L18.905 28.9844C18.905 28.9844 19.5052 29.1671 19.4971 29.1536C19.7277 29.2189 19.83 29.0468 19.8704 28.9321L20.4031 26.487C20.4231 26.4925 20.4426 26.4981 20.4615 26.5035C20.4709 26.5062 20.4802 26.5089 20.4892 26.5115C20.4567 26.4966 20.4272 26.487 20.4045 26.4804L20.7845 24.735C20.7945 24.5368 20.7349 24.2869 20.405 24.1926C20.4177 24.1828 19.8133 24.0242 19.8133 24.0242L20.03 23.0281L21.1534 23.3492L21.1525 23.354C21.3214 23.4021 21.4954 23.4478 21.6726 23.494L22.0065 21.9624L22.8206 22.1949L22.4935 23.6964C22.712 23.7535 22.932 23.8112 23.1461 23.8722L23.471 22.3805L24.2855 22.6129L23.9519 24.145Z" fill="#F7931A"/>
<path fill-rule="evenodd" clip-rule="evenodd" d="M36.6454 24.1433C37.2475 24.1433 37.7676 24.2669 38.2047 24.5094C38.6439 24.7543 39.0063 25.0842 39.297 25.4991C39.5838 25.9161 39.7972 26.4035 39.935 26.9621C40.0719 27.5223 40.1406 28.1245 40.1406 28.7691C40.1406 29.7594 39.9821 30.6949 39.6622 31.5767C39.3423 32.4599 38.9082 33.226 38.356 33.8794C37.8043 34.532 37.1528 35.0465 36.4016 35.4267C35.6515 35.807 34.836 35.9972 33.9604 35.9972C33.8471 35.9972 33.6481 35.9935 33.3669 35.9868C33.0857 35.9802 32.7625 35.947 32.4006 35.891C32.0363 35.8328 31.6512 35.7467 31.2445 35.6314C30.838 35.5183 30.4519 35.3597 30.0884 35.1584L33.3393 19.5197L36.251 19.0031L35.087 24.5527C35.3362 24.4241 35.5872 24.3245 35.8378 24.252C36.0886 24.1805 36.3577 24.1433 36.6454 24.1433ZM34.203 33.3527C34.6415 33.3527 35.0547 33.2292 35.4429 32.9867C35.8322 32.7439 36.1682 32.4161 36.4496 32.0078C36.731 31.5977 36.9537 31.1358 37.1161 30.6197C37.2785 30.1036 37.3607 29.5652 37.3607 29.005C37.3607 28.3168 37.2602 27.78 37.06 27.3919C36.8598 27.0054 36.4893 26.811 35.9512 26.811C35.7749 26.811 35.5478 26.8495 35.2661 26.9183C34.9835 26.9913 34.7306 27.143 34.504 27.3712L33.2646 33.2648C33.3393 33.2799 33.4054 33.2943 33.4618 33.3078C33.517 33.3224 33.578 33.3328 33.6388 33.3399C33.7031 33.3482 33.7766 33.3524 33.8655 33.3524L34.203 33.3527Z" fill="white"/>
<path d="M43.1601 35.6972H40.379L42.7276 24.3825H45.5277L43.1601 35.6972Z" fill="white"/>
<path d="M44.5134 23.0039C44.1252 23.0039 43.7733 22.8717 43.461 22.6066C43.1461 22.3431 42.9902 21.9375 42.9902 21.3908C42.9902 21.0902 43.0436 20.8081 43.1494 20.5419C43.2568 20.2763 43.3972 20.0476 43.573 19.8532C43.7487 19.6603 43.9521 19.5063 44.1832 19.3902C44.4157 19.276 44.663 19.2189 44.9266 19.2189C45.3145 19.2189 45.6646 19.3511 45.978 19.6162C46.2903 19.8826 46.4474 20.2882 46.4474 20.832C46.4474 21.1337 46.3943 21.4169 46.2875 21.6825C46.1815 21.9481 46.0412 22.1768 45.8653 22.3712C45.6911 22.5643 45.4857 22.7179 45.2551 22.8329C45.0224 22.949 44.776 23.0039 44.5134 23.0039Z" fill="white"/>
<path d="M50.8776 21.0481L47.9648 21.5647L46.1224 30.4702C45.9723 31.2017 45.8853 31.8963 45.8595 32.5572C45.8347 33.2165 45.9235 33.8016 46.1224 34.3092C46.324 34.8187 46.6609 35.2211 47.1374 35.5157C47.6146 35.8081 48.2845 35.955 49.1485 35.955C49.7494 35.955 50.2693 35.8992 50.7085 35.7834C51.147 35.6692 51.5539 35.5335 51.9298 35.3757L51.7224 32.9224C51.4342 33.0385 51.1495 33.1272 50.8686 33.191C50.586 33.2558 50.2937 33.2884 49.9937 33.2884C49.6294 33.2884 49.3517 33.2303 49.1577 33.1147C48.9629 33.001 48.8285 32.8403 48.7538 32.6318C48.6786 32.4239 48.6469 32.1768 48.6605 31.8892C48.6726 31.6028 48.7158 31.2947 48.7919 30.9648L49.6178 27.007H52.7186L53.2819 24.3832H50.1623L50.8776 21.0481Z" fill="white"/>
<path d="M53.1595 31.1798C53.1595 30.2052 53.2973 29.2861 53.5727 28.4258C53.8476 27.5647 54.2437 26.8116 54.7576 26.1654C55.2696 25.5223 55.8935 25.0128 56.6278 24.6388C57.3586 24.267 58.1769 24.0794 59.0787 24.0794C59.6432 24.0794 60.1474 24.1405 60.591 24.263C61.0364 24.3865 61.4394 24.5461 61.8039 24.7464L60.8448 27.2433C60.5942 27.1269 60.3341 27.0244 60.0652 26.9314C59.7961 26.8366 59.4676 26.7909 59.079 26.7909C58.1507 26.7909 57.4169 27.1572 56.8707 27.8874C56.3267 28.6181 56.0527 29.6017 56.0527 30.8355C56.0527 31.5668 56.1905 32.158 56.467 32.6104C56.7422 33.0627 57.2505 33.2877 57.9885 33.2877C58.3528 33.2877 58.7043 33.2442 59.0409 33.1592C59.3801 33.0731 59.6796 32.9647 59.9434 32.8367L60.1511 35.3962C59.7994 35.5524 59.4114 35.6934 58.9859 35.817C58.5595 35.9362 58.0519 35.9981 57.4633 35.9981C56.6863 35.9981 56.0285 35.868 55.4905 35.6116C54.9522 35.3513 54.5075 35.0058 54.1571 34.568C53.805 34.1292 53.5521 33.6168 53.3957 33.0287C53.2393 32.4412 53.1595 31.8239 53.1595 31.1798Z" fill="white"/>
<path fill-rule="evenodd" clip-rule="evenodd" d="M63.7847 35.6531C64.2738 35.8823 64.8504 35.9981 65.5141 35.9981C66.4287 35.9981 67.2343 35.7787 67.9289 35.3415C68.6245 34.9043 69.2035 34.3414 69.6666 33.6538C70.1306 32.9645 70.4821 32.1888 70.719 31.3312C70.9557 30.4692 71.0749 29.6075 71.0749 28.7483C71.0749 28.0606 70.9942 27.4318 70.8306 26.8666C70.6682 26.2992 70.4267 25.8097 70.1088 25.3927C69.7875 24.9778 69.381 24.6534 68.8875 24.4247C68.3917 24.1955 67.8182 24.0794 67.1665 24.0794C66.2784 24.0794 65.4877 24.2988 64.8003 24.735C64.1121 25.1741 63.5277 25.7372 63.0539 26.4259C62.5765 27.1136 62.2157 27.8874 61.9725 28.7485C61.7282 29.6078 61.6074 30.4695 61.6074 31.3314C61.6074 32.0186 61.6862 32.6457 61.8503 33.212C62.0143 33.7786 62.2537 34.2703 62.5737 34.6852C62.8931 35.1022 63.2971 35.4238 63.7847 35.6531ZM65.8153 27.1989C66.1273 26.9282 66.4918 26.7912 66.9041 26.7912C67.4301 26.7912 67.7939 26.9925 67.9943 27.3928C68.195 27.7947 68.2957 28.3551 68.2957 29.0713C68.2957 29.5154 68.2421 29.9863 68.137 30.4801C68.0296 30.9752 67.8693 31.4313 67.6563 31.8462C67.4426 32.2622 67.1793 32.6067 66.8679 32.8784C66.554 33.152 66.1914 33.288 65.7777 33.288C65.2513 33.288 64.8891 33.0867 64.6875 32.6864C64.4887 32.2839 64.3875 31.7248 64.3875 31.0068C64.3875 30.5619 64.4397 30.0936 64.5462 29.5983C64.6536 29.1039 64.8125 28.6492 65.0269 28.2322C65.239 27.817 65.5021 27.4727 65.8153 27.1989Z" fill="white"/>
<path d="M74.1049 35.6972H71.3215L73.6701 24.3825H76.4716L74.1049 35.6972Z" fill="white"/>
<path d="M75.4561 23.0039C75.0682 23.0039 74.7165 22.8717 74.4047 22.6066C74.0914 22.3431 73.9341 21.9375 73.9341 21.3908C73.9341 21.0902 73.9882 20.8081 74.0942 20.5419C74.2003 20.2763 74.3415 20.0476 74.5174 19.8532C74.6921 19.6603 74.8974 19.5063 75.1281 19.3902C75.3591 19.276 75.6065 19.2189 75.8691 19.2189C76.2579 19.2189 76.6092 19.3511 76.922 19.6162C77.2349 19.8826 77.3929 20.2882 77.3929 20.832C77.3929 21.1337 77.3368 21.4169 77.2317 21.6825C77.1266 21.9481 76.9853 22.1768 76.8101 22.3712C76.6338 22.5643 76.431 22.7179 76.1999 22.8329C75.967 22.949 75.7201 23.0039 75.4561 23.0039Z" fill="white"/>
<path d="M79.1785 24.6505C78.9224 24.7429 78.6868 24.8278 78.4758 24.8985L76.201 35.6973H79.0016L80.8244 26.9427C81.201 26.8566 81.5699 26.812 81.9325 26.812C82.3086 26.812 82.5858 26.8946 82.7694 27.059C82.9501 27.2261 83.0666 27.4418 83.116 27.7053C83.1677 27.972 83.1703 28.2801 83.126 28.6296C83.0821 28.9824 83.0227 29.3434 82.9471 29.7168L81.7072 35.6975H84.5066L85.7859 29.5883C86.1479 27.8968 86.0514 26.5623 85.4936 25.5872C84.9354 24.6121 83.9243 24.1231 82.4576 24.1231C81.9585 24.1231 81.5093 24.1481 81.1152 24.1993C80.721 24.2495 80.3625 24.3144 80.0449 24.3943C79.7238 24.4719 79.4358 24.5581 79.1785 24.6505Z" fill="white"/>
</svg>
