<svg width="100" height="56" viewBox="0 0 100 56" fill="none" xmlns="http://www.w3.org/2000/svg">
<path fill-rule="evenodd" clip-rule="evenodd" d="M84.466 31.0646C84.9212 31.6351 85.6326 31.9774 86.3723 31.9489C86.5715 31.9489 86.7991 31.9203 86.9983 31.8918C87.1406 31.8633 87.3113 31.8062 87.4535 31.7492C87.5673 31.6921 87.6812 31.6066 87.795 31.521C87.8803 31.4354 87.9657 31.3498 88.0226 31.2643C88.0795 31.2072 88.1364 31.1216 88.1933 31.0075L88.364 31.8633H89.6444V23.3057L88.1648 23.3913V25.388C88.1648 25.7303 88.1933 26.1012 88.2218 26.4435C87.8803 25.8159 87.2544 25.5021 86.3723 25.5021C85.6326 25.4736 84.9212 25.8159 84.466 26.3864C83.9823 27.0425 83.7547 27.8697 83.7831 28.697C83.7262 29.5242 83.9823 30.38 84.466 31.0646ZM88.2218 28.8111C88.1933 30.1518 87.7096 30.8364 86.7138 30.8364C86.287 30.8364 85.8886 30.6367 85.6326 30.2944C85.348 29.838 85.2058 29.2675 85.2342 28.7255C85.2058 28.1835 85.348 27.613 85.6326 27.1566C85.8602 26.8143 86.2585 26.6146 86.6853 26.6432C87.1406 26.6146 87.5673 26.8143 87.8234 27.1566C88.0795 27.4989 88.2218 28.0409 88.2218 28.8111Z" fill="white"/>
<path d="M41.6447 31.9488C40.4497 31.9488 39.4823 31.578 38.771 30.8078C38.0597 30.0376 37.7183 29.0107 37.7183 27.67C37.7183 26.4149 38.0881 25.388 38.8279 24.6178C39.5961 23.8476 40.6489 23.4197 41.7301 23.4768C42.5837 23.4482 43.4373 23.6764 44.177 24.1614L43.6933 25.3309C43.1243 24.9601 42.4414 24.7604 41.7585 24.7319C41.0757 24.7034 40.3928 25.0171 39.966 25.5591C39.5108 26.1867 39.2832 26.9569 39.3116 27.727C39.3116 28.6684 39.5108 29.41 39.9376 29.952C40.3928 30.494 41.0472 30.7792 41.7585 30.7507C42.4699 30.7507 43.1812 30.5796 43.8071 30.2373L44.0063 31.4353C43.295 31.7776 42.4699 31.9773 41.6447 31.9488Z" fill="white"/>
<path fill-rule="evenodd" clip-rule="evenodd" d="M47.876 31.9486C47.0509 31.9771 46.2542 31.6633 45.7136 31.0643C45.173 30.4082 44.8885 29.581 44.9169 28.7252C44.9169 27.7268 45.173 26.9281 45.7136 26.3576C46.2258 25.7871 46.9655 25.5018 47.9329 25.5018C48.758 25.4448 49.5547 25.7871 50.0953 26.3861C50.6359 27.0422 50.9205 27.8694 50.892 28.7252C50.9205 29.581 50.6359 30.4082 50.0953 31.0643C49.5263 31.6633 48.7011 32.0056 47.876 31.9486ZM47.9329 30.8361C48.3882 30.8646 48.815 30.6649 49.071 30.2941C49.3556 29.8092 49.4694 29.2672 49.4409 28.7252C49.4694 28.1832 49.3271 27.6127 49.0426 27.1278C48.5304 26.5002 47.6199 26.3861 46.994 26.8996C46.9086 26.9566 46.8233 27.0422 46.7664 27.1278C46.4818 27.6127 46.368 28.1547 46.3965 28.7252C46.368 29.2672 46.5103 29.8092 46.7948 30.2656C47.0224 30.6364 47.4777 30.8646 47.9329 30.8361Z" fill="white"/>
<path d="M52.1153 23.4768V24.7319H53.5948V23.4768H52.1153Z" fill="white"/>
<path d="M52.1153 25.6448V31.8347H53.5948V25.6448H52.1153Z" fill="white"/>
<path d="M55.1315 25.6447H56.3266L56.4973 26.4149C57.0379 25.8444 57.8061 25.5021 58.6028 25.4736C59.2003 25.4165 59.7978 25.6447 60.2246 26.1011C60.5945 26.529 60.7652 27.1281 60.7652 27.8982V31.8062H59.2856V28.0979C59.3141 27.6986 59.2287 27.3277 59.0296 26.9854C58.8304 26.7287 58.5174 26.5861 58.176 26.6146C57.863 26.6146 57.55 26.7002 57.2939 26.8713C57.0379 27.0139 56.8387 27.2422 56.7249 27.4989C56.6395 27.9553 56.6111 28.4117 56.6111 28.8681V31.8918H55.1315V25.6447Z" fill="white"/>
<path d="M61.9602 31.4925C62.6431 31.8348 63.3829 31.9775 64.1511 31.9489C64.8055 31.9775 65.4315 31.8063 65.9721 31.521C66.3989 31.1787 66.6265 30.6368 66.598 30.0948C66.6265 29.6669 66.4842 29.2675 66.1997 28.9538C65.8298 28.6115 65.403 28.3547 64.9478 28.2121L64.7486 28.1265L64.6063 28.0695C64.2934 27.9554 63.9804 27.8128 63.6674 27.6416C63.4967 27.5275 63.4113 27.3564 63.4113 27.1852C63.4113 26.9855 63.4967 26.8144 63.6674 26.7288C63.8666 26.6147 64.1226 26.5862 64.3503 26.5862C64.9193 26.5862 65.5168 26.7288 66.029 26.9855L66.3989 25.9586C65.7444 25.6448 65.0331 25.4737 64.3218 25.5022C63.7243 25.4737 63.1268 25.6163 62.6146 25.9586C62.2163 26.2724 61.9887 26.7573 62.0171 27.2708C61.9887 27.6701 62.1309 28.0695 62.387 28.3833C62.7285 28.7256 63.1552 28.9823 63.6105 29.1249L63.9235 29.239C64.2649 29.3531 64.5779 29.4957 64.8909 29.6954C65.0616 29.8095 65.1469 30.0092 65.1469 30.2089C65.1469 30.4371 65.0331 30.6368 64.8624 30.7509C64.6348 30.865 64.3503 30.922 64.0942 30.922C63.7243 30.8935 63.3829 30.8364 63.0414 30.7509C62.7285 30.6653 62.4155 30.5227 62.1025 30.38L61.9602 31.4925Z" fill="white"/>
<path fill-rule="evenodd" clip-rule="evenodd" d="M67.8214 31.8347V23.5624H70.5813C71.1503 23.5624 71.7194 23.648 72.26 23.8191C72.6868 23.9618 73.0851 24.247 73.3412 24.6464C73.6257 25.0742 73.768 25.5592 73.7396 26.0726C73.7396 26.4435 73.6826 26.7858 73.5973 27.1281C73.4835 27.4418 73.3128 27.7271 73.0851 27.9553C72.8006 28.2405 72.4876 28.4117 72.1177 28.5258C71.634 28.6684 71.1219 28.7255 70.5813 28.7255C70.0691 28.7255 69.6424 28.7255 69.3294 28.6684V31.8347H67.8214ZM70.4106 27.5845C70.6951 27.5845 70.9512 27.5559 71.2357 27.4989C71.4349 27.4418 71.6056 27.3848 71.7763 27.2707C71.8901 27.1851 72.0039 27.071 72.0893 26.9284C72.1747 26.8143 72.2031 26.6717 72.2316 26.529C72.26 26.3864 72.26 26.2438 72.26 26.1012C72.2885 25.7019 72.1177 25.331 71.8332 25.0742C71.4633 24.8175 71.0365 24.7034 70.5813 24.7319H69.3294V27.613C69.3863 27.5845 69.7277 27.5845 70.4106 27.5845Z" fill="white"/>
<path fill-rule="evenodd" clip-rule="evenodd" d="M74.849 31.4637C75.2473 31.806 75.731 31.9771 76.2432 31.9486C76.6131 31.9486 76.983 31.8916 77.3244 31.7204C77.6658 31.5493 77.9788 31.3211 78.2349 31.0643C78.2349 31.0643 78.2918 31.207 78.3487 31.4352C78.4056 31.6634 78.4625 31.806 78.4625 31.806H79.5437V27.7554C79.5437 26.9282 79.3445 26.3577 78.9747 25.9868C78.6048 25.616 77.9788 25.4449 77.1537 25.4449C76.357 25.4163 75.5319 25.5875 74.7921 25.9013L74.9628 26.4147C75.1051 26.757 75.162 26.9282 75.162 26.9282C75.731 26.6714 76.357 26.5288 77.0114 26.5003C77.296 26.4718 77.5805 26.5573 77.8081 26.757C78.0073 26.9852 78.0926 27.299 78.0642 27.5842V27.9266L77.6658 27.9551L77.2106 28.0121C77.1537 28.0264 77.0897 28.0335 77.0257 28.0407C76.9616 28.0478 76.8976 28.0549 76.8407 28.0692C76.1578 28.0977 75.5034 28.2974 74.9344 28.6682C74.5076 29.0105 74.28 29.5525 74.3084 30.0945C74.28 30.6079 74.4791 31.1214 74.849 31.4637ZM77.5236 30.6365C77.2675 30.8076 76.9545 30.8932 76.6415 30.8932C76.4139 30.9217 76.1578 30.8361 75.9587 30.665C75.7879 30.5224 75.731 30.2942 75.731 30.066C75.731 29.7522 75.8733 29.4099 76.1578 29.2387C76.5562 29.039 77.0114 28.9249 77.4667 28.8964L77.7796 28.8679L78.0642 28.8394V30.0374C77.9504 30.2942 77.7512 30.4938 77.5236 30.6365Z" fill="white"/>
<path d="M81.0522 24.7319V23.4768H82.5317V24.7319H81.0522Z" fill="white"/>
<path d="M81.0522 31.8347V25.6448H82.5317V31.8347H81.0522Z" fill="white"/>
<path fill-rule="evenodd" clip-rule="evenodd" d="M15.2855 26.5861H19.1571L20.518 31.8633H15.314C12.9239 31.8633 8.39996 30.4085 8.39996 24.9316C8.39996 19.4548 12.9239 18 15.314 18H19.0982L20.4924 23.2487H15.2855C14.8018 23.2772 13.6353 23.4483 13.6353 24.9316C13.6068 25.3595 13.7491 25.7874 14.0336 26.1012C14.375 26.3864 14.8303 26.5576 15.2855 26.5861Z" fill="#001D6D"/>
<path d="M22.0289 37.5399H27.3211L26.6098 34.9441H28.004C30.394 34.9441 34.8895 33.4893 34.8895 28.0125C34.8895 22.5356 30.394 21.1093 28.004 21.1093H17.6472L19.1267 26.5862H27.8901C28.4023 26.5862 29.7111 26.4436 29.7965 27.9554C29.8534 29.3532 28.5446 29.4387 28.0324 29.4673H19.8665L22.0289 37.5399Z" fill="#0C98FA"/>
</svg>
