<svg width="100" height="56" viewBox="0 0 100 56" fill="none" xmlns="http://www.w3.org/2000/svg">
<path d="M47.5789 27.6152V36.6213H44.2585V14.3483H52.8915C54.9944 14.3483 56.9866 15.0262 58.5362 16.2851C60.0857 17.4471 60.8604 19.1902 60.8604 21.0302C60.8604 22.8701 60.0857 24.5164 58.5362 25.7753C56.9866 27.0342 55.1051 27.7121 52.8915 27.7121L47.5789 27.6152ZM47.5789 17.0598V24.8069H53.1129C54.3303 24.8069 55.5478 24.4196 56.3226 23.6448C58.0934 22.1923 58.0934 19.7713 56.4332 18.3187L56.3226 18.2219C55.4371 17.4471 54.3303 16.963 53.1129 17.0598H47.5789Z" fill="white"/>
<path d="M68.4974 20.9333C70.9323 20.9333 72.8139 21.5143 74.2527 22.6764C75.6916 23.8384 76.3556 25.3879 76.3556 27.3246V36.6212H73.2566V34.4907H73.1459C71.8178 36.2338 69.9362 37.1054 67.7226 37.1054C65.8411 37.1054 64.1809 36.6212 62.8527 35.6528C61.6352 34.6844 60.8605 33.3287 60.8605 31.8761C60.8605 30.3266 61.5246 29.0677 62.8527 28.0993C64.1809 27.131 66.0624 26.7436 68.276 26.7436C70.2682 26.7436 71.8178 27.0341 73.0352 27.712V27.0341C73.0352 26.0657 72.5925 25.0973 71.7071 24.5163C70.8216 23.8384 69.7149 23.4511 68.4974 23.4511C66.6158 23.4511 65.177 24.1289 64.1809 25.4847L61.3032 23.9353C63.0741 21.9016 65.3983 20.9333 68.4974 20.9333ZM64.2915 31.9729C64.2915 32.7476 64.7343 33.4255 65.3983 33.8129C66.1731 34.297 67.0585 34.5876 67.944 34.5876C69.2721 34.5876 70.6003 34.1034 71.5964 33.2318C72.7032 32.3603 73.2566 31.295 73.2566 30.133C72.2605 29.4551 70.8216 29.0677 68.9401 29.0677C67.6119 29.0677 66.5051 29.3583 65.6197 29.9393C64.7343 30.4235 64.2915 31.1014 64.2915 31.9729Z" fill="white"/>
<path d="M94.2858 21.4175L83.3285 43.4H80.0081L84.1032 35.7497L76.9091 21.5143H80.4508L85.6527 32.4572H85.7634L90.8547 21.5143H94.2858V21.4175Z" fill="white"/>
<path d="M34.4081 25.6783C34.4081 24.8068 34.2974 23.9352 34.1867 23.0637H20.3517V28.0025H28.21C27.878 29.5519 26.8818 31.0045 25.3323 31.876V35.0717H30.0916C32.8586 32.8444 34.4081 29.5519 34.4081 25.6783Z" fill="#4285F4"/>
<path d="M20.3517 38.1707C24.3362 38.1707 27.6566 37.0086 30.0915 35.0719L25.3323 31.8762C24.0041 32.6509 22.3439 33.1351 20.3517 33.1351C16.5886 33.1351 13.2682 30.9078 12.1614 27.8089H7.2915V31.1015C9.83714 35.4592 14.8177 38.1707 20.3517 38.1707Z" fill="#34A853"/>
<path d="M12.1614 27.809C11.4973 26.2595 11.4973 24.5164 12.1614 22.8702V19.5776H7.29148C5.18857 23.1607 5.18857 27.4216 7.29148 31.1015L12.1614 27.809Z" fill="#FBBC04"/>
<path d="M20.3517 17.6408C22.4546 17.6408 24.4468 18.3187 25.9963 19.5776L30.2022 15.8977C27.5459 13.7673 24.0041 12.5084 20.4624 12.6052C14.9284 12.6052 9.83711 15.3167 7.40216 19.6745L12.2721 22.967C13.2682 19.8681 16.5886 17.6408 20.3517 17.6408Z" fill="#EA4335"/>
</svg>
