<svg width="100" height="56" viewBox="0 0 100 56" fill="none" xmlns="http://www.w3.org/2000/svg">
<rect x="28.26" y="6.26" width="43.48" height="43.48" rx="2.86" fill="#FDB913" stroke="white" stroke-width="0.52"/>
<path fill-rule="evenodd" clip-rule="evenodd" d="M68.1581 12.6783H67.605V14.2423H67.8548V13.5631H68.0595C68.2311 13.5631 68.2835 13.6378 68.2877 13.8083C68.2892 13.8487 68.2899 13.886 68.2906 13.9214C68.2917 13.9853 68.2928 14.0433 68.2984 14.1035C68.299 14.1528 68.3137 14.201 68.3406 14.2423H68.6233C68.6006 14.2278 68.5819 14.2078 68.5689 14.1842C68.5559 14.1606 68.5491 14.1341 68.549 14.1072C68.5459 14.0446 68.5442 13.9703 68.5426 13.8986C68.5417 13.8608 68.5409 13.8237 68.5398 13.7895C68.5319 13.5696 68.4502 13.4841 68.2947 13.4682V13.4652C68.4656 13.4387 68.5557 13.2828 68.5557 13.0801C68.5622 13.0262 68.5564 12.9715 68.5388 12.9202C68.5211 12.8688 68.4921 12.8221 68.4539 12.7835C68.4157 12.7449 68.3693 12.7154 68.3181 12.6972C68.2668 12.6789 68.2121 12.6725 68.1581 12.6783ZM68.1552 13.3617C68.1232 13.3734 68.089 13.3779 68.055 13.3748H67.8548V12.8666H68.0682C68.2328 12.8666 68.3051 12.9544 68.3051 13.1212C68.3088 13.155 68.3048 13.1893 68.2936 13.2214C68.2824 13.2536 68.2642 13.2828 68.2402 13.3071C68.2163 13.3314 68.1873 13.35 68.1552 13.3617Z" fill="#231F20"/>
<path fill-rule="evenodd" clip-rule="evenodd" d="M68.0723 14.7218C67.8184 14.722 67.5701 14.647 67.3589 14.5064C67.1477 14.3658 66.983 14.1658 66.8857 13.9317C66.7884 13.6976 66.7628 13.44 66.8123 13.1915C66.8617 12.9429 66.984 12.7146 67.1635 12.5354C67.343 12.3561 67.5717 12.2341 67.8208 12.1847C68.0698 12.1352 68.3279 12.1606 68.5625 12.2576C68.7971 12.3546 68.9976 12.5189 69.1386 12.7296C69.2796 12.9404 69.3548 13.1881 69.3546 13.4415C69.3543 13.7809 69.2191 14.1062 68.9787 14.3463C68.7383 14.5863 68.4123 14.7213 68.0723 14.7218ZM68.0723 12.3212C67.8503 12.3211 67.6333 12.3868 67.4487 12.5098C67.2641 12.6328 67.1202 12.8077 67.0352 13.0124C66.9502 13.2171 66.9279 13.4423 66.9712 13.6596C67.0144 13.8768 67.1213 14.0765 67.2782 14.2331C67.4352 14.3898 67.6351 14.4966 67.8528 14.5398C68.0706 14.5831 68.2962 14.561 68.5013 14.4762C68.7064 14.3915 68.8818 14.248 69.0051 14.0638C69.1285 13.8796 69.1944 13.6631 69.1944 13.4415C69.1942 13.1445 69.0759 12.8598 68.8655 12.6497C68.6552 12.4397 68.3699 12.3215 68.0723 12.3212Z" fill="#231F20"/>
<path d="M63.33 20.3432C63.2523 18.068 63.8436 16.2623 66.3872 15.6872C68.0083 15.3196 68.624 15.7405 68.9357 16.1473C69.2355 16.5354 69.3512 17.0589 69.3512 17.7921L69.353 17.9267L67.363 18.3987L67.3616 18.1223C67.363 17.2528 67.1209 16.9221 66.488 17.0803C65.7355 17.2689 65.4315 17.9818 65.4315 19.3991C65.4315 19.7671 65.4327 19.9142 65.4333 19.9932C65.4335 20.0223 65.4337 20.0422 65.4337 20.0604C65.4337 21.5008 65.6309 22.1601 66.4982 21.9789C67.2505 21.8237 67.3536 21.1644 67.3658 20.5864C67.3673 20.4957 67.371 20.2052 67.371 20.2052L69.358 19.7367C69.358 19.7367 69.3599 19.8832 69.3599 20.046C69.355 21.9348 68.3575 23.1251 66.4888 23.5591C63.9142 24.1614 63.41 22.6767 63.33 20.3432Z" fill="#231F20"/>
<path d="M52.1234 26.7269L52.1199 19.2564L54.0738 18.7936V19.7729C54.0738 19.7729 54.58 18.485 55.7546 18.1861C55.93 18.1297 56.1166 18.1171 56.298 18.1496V20.0557C55.9462 20.0603 55.5986 20.1325 55.2742 20.2684C54.5522 20.553 54.1888 21.1739 54.1888 22.1217L54.1901 26.2468L52.1234 26.7269Z" fill="#231F20"/>
<path d="M41.8231 29.1562C41.8231 29.1562 41.5054 28.6808 41.5054 27V23.2802L40.5 23.5189V21.9865L41.5076 21.7491V20.0787L43.5853 19.5889V21.2593L45.0534 20.9113V22.4419L43.5853 22.7896C43.5853 22.7896 43.583 25.8372 43.5853 26.5773C43.5853 28.2995 44.0433 28.6302 44.0433 28.6302L41.8231 29.1562Z" fill="#231F20"/>
<path fill-rule="evenodd" clip-rule="evenodd" d="M45.8669 21.6713C45.46 22.4149 45.2705 23.3838 45.2705 24.7119C45.2705 26.8897 45.9309 28.3992 48.4077 27.8125C51.0223 27.1955 51.2312 25.4173 51.2475 24.7005C51.2503 24.528 51.2458 24.3743 51.2458 24.3743L49.3647 24.8242C49.3647 24.8242 49.3604 25.0435 49.3515 25.1298C49.2968 25.6647 49.1044 26.0972 48.4124 26.243C47.6114 26.4125 47.3464 25.8139 47.3464 24.5525V24.4878L51.362 23.5459C51.362 23.5459 51.3591 23.2314 51.3712 22.5857C51.403 20.7802 50.5804 19.4338 48.3011 19.9511C47.1447 20.2138 46.3509 20.7889 45.8669 21.6713ZM47.3551 23.2239C47.3702 22.1447 47.7192 21.4933 48.3846 21.3426C49.1227 21.174 49.3751 21.6041 49.3786 22.4188C49.3791 22.5874 49.3786 22.695 49.3751 22.7438L47.3551 23.2239Z" fill="#231F20"/>
<path fill-rule="evenodd" clip-rule="evenodd" d="M58.9959 20.6194C57.4669 21.2507 56.451 21.798 56.451 23.5286C56.451 24.8012 57.2458 25.7294 58.7467 25.3762C60.1759 25.0411 60.5904 23.9991 60.5904 23.9991C60.6547 24.2322 60.7396 24.4592 60.844 24.6775L62.7366 24.2306C62.7366 24.2306 62.439 23.9961 62.439 22.3958V19.087C62.4365 17.6898 61.7528 16.7915 59.7017 17.2632C58.1231 17.6278 57.2086 18.3241 56.9004 19.359C56.7991 19.7291 56.7543 20.1123 56.7672 20.4957L58.6951 20.0413C58.6925 19.9134 58.6968 19.7854 58.708 19.6579C58.7155 19.4256 58.8015 19.2027 58.9519 19.0253C59.1023 18.8479 59.3083 18.7264 59.5366 18.6805C60.2211 18.5063 60.414 18.8615 60.4063 19.2767C60.4006 19.7699 60.3708 20.0517 58.9959 20.6194ZM59.3863 21.7539C59.7374 21.5854 60.0742 21.3886 60.3932 21.1654V22.2062C60.3932 22.9987 59.968 23.569 59.3555 23.7232C58.7845 23.864 58.4703 23.5316 58.4703 23.0254C58.4703 22.441 58.7554 22.0615 59.3863 21.7539Z" fill="#231F20"/>
<path d="M30.9598 34.3931C30.7438 34.3928 30.5319 34.3344 30.3463 34.224C30.1608 34.1137 30.0085 33.9554 29.9054 33.766C29.8024 33.5765 29.7525 33.3628 29.7609 33.1474C29.7693 32.932 29.8357 32.7229 29.9532 32.542L29.9666 32.5246L29.9892 32.5187L32.8152 31.8529V33.9947L32.7712 34.0049C32.1301 34.1588 31.3639 34.3341 31.2062 34.3675C31.1252 34.3846 31.0426 34.3932 30.9598 34.3931Z" fill="#231F20"/>
<path d="M30.1118 36.7829C30.3368 37.0071 30.6418 37.1331 30.9598 37.133C31.0425 37.1333 31.125 37.1256 31.2062 37.11C31.3639 37.0785 32.1301 36.9012 32.7712 36.7478L32.8152 36.7364V34.5946L29.9892 35.2601L29.9666 35.2658L29.9532 35.2859C29.8265 35.4795 29.7593 35.7058 29.76 35.937C29.7603 36.2544 29.8868 36.5586 30.1118 36.7829Z" fill="#231F20"/>
<path d="M30.9598 39.8782C30.6418 39.878 30.3367 39.7519 30.1118 39.5274C29.8868 39.303 29.7603 38.9987 29.76 38.6812C29.7591 38.45 29.8263 38.2236 29.9532 38.0301L29.9666 38.0085L32.8152 37.3385V39.4804L32.7712 39.4918C32.0941 39.6544 31.3423 39.8239 31.2062 39.8539C31.1251 39.8701 31.0426 39.8783 30.9598 39.8782Z" fill="#231F20"/>
<path d="M30.6256 19.7843L30.6263 31.7685L32.8149 31.2519V19.2679L30.6256 19.7843Z" fill="#231F20"/>
<path d="M36.0796 30.7489C36.0796 30.3914 35.9373 30.0485 35.6839 29.7957C35.4306 29.5429 35.0871 29.4009 34.7288 29.4009C34.3706 29.4009 34.027 29.5429 33.7737 29.7957C33.5204 30.0485 33.3781 30.3914 33.3781 30.7489L33.3803 41.9499C33.3815 42.9172 33.7669 43.8445 34.452 44.5287C35.1371 45.2129 36.0661 45.5982 37.0353 45.6C38.0578 45.6 40.859 45.5951 40.859 45.5951L40.8602 40.9222C40.861 38.3692 40.8614 35.7705 40.8614 35.7113C40.8618 35.4208 40.7903 35.1347 40.6532 34.8784C40.5162 34.6221 40.3179 34.4036 40.0759 34.2422L36.668 31.9323L36.6672 37.1777C36.6672 37.2546 36.6366 37.3284 36.5821 37.3827C36.5276 37.4371 36.4537 37.4677 36.3766 37.4677C36.2996 37.4677 36.2256 37.4371 36.1711 37.3827C36.1166 37.3284 36.086 37.2546 36.086 37.1777L36.0852 36.4189C36.0835 34.8365 36.0796 31.2873 36.0796 30.7489Z" fill="#231F20"/>
<path d="M36.765 22.9313C37.1013 22.6718 37.4898 22.4878 37.9039 22.3919C39.4636 22.0268 39.9651 22.9353 39.9651 24.2348V29.595L37.8887 30.0808L37.8872 25.0139C37.8872 24.2214 37.5149 24.0623 37.0691 24.16C36.4765 24.2904 36.0617 24.9549 36.0617 25.7867V29.2596C35.7828 29.0142 35.4414 28.8504 35.0751 28.7865C34.7088 28.7226 34.3319 28.761 33.9861 28.8975L33.9838 23.5187L35.9552 23.0532V23.8955C36.1524 23.5197 36.4286 23.1908 36.765 22.9313Z" fill="#231F20"/>
</svg>
