<svg width="100" height="56" viewBox="0 0 100 56" fill="none" xmlns="http://www.w3.org/2000/svg">
<g clip-path="url(#clip0_1_655)">
<path d="M35.156 45.9211V43.532C35.156 42.618 34.6156 42.0196 33.6879 42.0196C33.224 42.0196 32.7196 42.1773 32.3728 42.6969C32.1026 42.2608 31.7153 42.0196 31.1343 42.0196C30.747 42.0196 30.3597 42.1402 30.0534 42.5763V42.0985H29.2428V45.9211H30.0534V43.8103C30.0534 43.133 30.4002 42.8129 30.9407 42.8129C31.4811 42.8129 31.7513 43.1701 31.7513 43.8103V45.9211H32.562V43.8103C32.562 43.133 32.9493 42.8129 33.4492 42.8129C33.9896 42.8129 34.2598 43.1701 34.2598 43.8103V45.9211H35.156ZM47.1806 42.0985H45.8656V40.9433H45.0549V42.0985H44.3209V42.8546H45.0549V44.6083C45.0549 45.4851 45.4017 46 46.3295 46C46.6762 46 47.0636 45.8794 47.3338 45.7217L47.0996 45.0026C46.8654 45.1603 46.5952 45.2021 46.4015 45.2021C46.0142 45.2021 45.8611 44.9608 45.8611 44.5665V42.8546H47.1761V42.0985H47.1806ZM54.0622 42.015C53.5983 42.015 53.2875 42.2562 53.0939 42.5717V42.0938H52.2832V45.9165H53.0939V43.7639C53.0939 43.1284 53.3641 42.7665 53.8685 42.7665C54.0216 42.7665 54.2153 42.8083 54.3729 42.8454L54.6071 42.0474C54.445 42.015 54.2153 42.015 54.0622 42.015ZM43.6633 42.4139C43.276 42.1356 42.7356 42.015 42.1546 42.015C41.2269 42.015 40.6099 42.4928 40.6099 43.249C40.6099 43.8845 41.0738 44.2464 41.8844 44.3624L42.2717 44.4041C42.6951 44.483 42.9292 44.6036 42.9292 44.8031C42.9292 45.0815 42.6185 45.2809 42.0781 45.2809C41.5376 45.2809 41.1098 45.0815 40.8396 44.882L40.4523 45.5175C40.8756 45.8376 41.4566 45.9954 42.0375 45.9954C43.1184 45.9954 43.7399 45.4758 43.7399 44.7613C43.7399 44.084 43.2355 43.7268 42.4654 43.6062L42.0781 43.5644C41.7313 43.5227 41.4611 43.4438 41.4611 43.2072C41.4611 42.9289 41.7313 42.7711 42.1591 42.7711C42.623 42.7711 43.0869 42.9706 43.3211 43.0912L43.6633 42.4139ZM65.2311 42.015C64.7672 42.015 64.4565 42.2562 64.2628 42.5717V42.0938H63.4522V45.9165H64.2628V43.7639C64.2628 43.1284 64.533 42.7665 65.0374 42.7665C65.1906 42.7665 65.3842 42.8083 65.5418 42.8454L65.776 42.0567C65.6184 42.015 65.3887 42.015 65.2311 42.015ZM54.8728 44.0098C54.8728 45.165 55.6474 46 56.8454 46C57.3858 46 57.7731 45.8794 58.1604 45.5639L57.7731 44.8866C57.4624 45.1278 57.1561 45.2438 56.8048 45.2438C56.1473 45.2438 55.6835 44.766 55.6835 44.0098C55.6835 43.2907 56.1473 42.8129 56.8048 42.7758C57.1516 42.7758 57.4624 42.8964 57.7731 43.133L58.1604 42.4557C57.7731 42.1356 57.3858 42.0196 56.8454 42.0196C55.6474 42.015 54.8728 42.8546 54.8728 44.0098ZM62.3713 44.0098V42.0985H61.5607V42.5763C61.2904 42.2191 60.9031 42.0196 60.3987 42.0196C59.3539 42.0196 58.5432 42.8546 58.5432 44.0098C58.5432 45.165 59.3539 46 60.3987 46C60.9392 46 61.3265 45.8005 61.5607 45.4433V45.9211H62.3713V44.0098ZM59.3944 44.0098C59.3944 43.3325 59.8178 42.7758 60.5158 42.7758C61.1733 42.7758 61.6372 43.2954 61.6372 44.0098C61.6372 44.6871 61.1733 45.2438 60.5158 45.2438C59.8223 45.2021 59.3944 44.6825 59.3944 44.0098ZM49.6937 42.015C48.6128 42.015 47.8382 42.8129 47.8382 44.0052C47.8382 45.2021 48.6128 45.9954 49.7342 45.9954C50.2746 45.9954 50.8151 45.8376 51.2429 45.4758L50.8556 44.8773C50.5448 45.1186 50.1575 45.2763 49.7747 45.2763C49.2703 45.2763 48.7704 45.0351 48.6533 44.3624H51.396C51.396 44.2418 51.396 44.1629 51.396 44.0423C51.4321 42.8129 50.734 42.015 49.6937 42.015ZM49.6937 42.734C50.1981 42.734 50.5448 43.0541 50.6214 43.6479H48.6894C48.7659 43.133 49.1127 42.734 49.6937 42.734ZM69.8338 44.0098V40.5861H69.0231V42.5763C68.7529 42.2191 68.3656 42.0196 67.8612 42.0196C66.8164 42.0196 66.0057 42.8546 66.0057 44.0098C66.0057 45.165 66.8164 46 67.8612 46C68.4016 46 68.7889 45.8005 69.0231 45.4433V45.9211H69.8338V44.0098ZM66.8569 44.0098C66.8569 43.3325 67.2802 42.7758 67.9783 42.7758C68.6358 42.7758 69.0997 43.2954 69.0997 44.0098C69.0997 44.6871 68.6358 45.2438 67.9783 45.2438C67.2802 45.2021 66.8569 44.6825 66.8569 44.0098ZM39.7182 44.0098V42.0985H38.9075V42.5763C38.6373 42.2191 38.25 42.0196 37.7456 42.0196C36.7008 42.0196 35.8901 42.8546 35.8901 44.0098C35.8901 45.165 36.7008 46 37.7456 46C38.286 46 38.6733 45.8005 38.9075 45.4433V45.9211H39.7182V44.0098ZM36.7053 44.0098C36.7053 43.3325 37.1286 42.7758 37.8267 42.7758C38.4842 42.7758 38.9481 43.2954 38.9481 44.0098C38.9481 44.6871 38.4842 45.2438 37.8267 45.2438C37.1286 45.2021 36.7053 44.6825 36.7053 44.0098Z" fill="white"/>
<path d="M55.5709 13.0665H43.3931V35.6036H55.5709V13.0665Z" fill="#FF5A00"/>
<path d="M44.2038 24.3351C44.2038 19.7562 46.2934 15.6923 49.5 13.0665C47.1401 11.1552 44.1632 10 40.9161 10C33.224 10 27 16.4113 27 24.3351C27 32.2588 33.224 38.6701 40.9161 38.6701C44.1632 38.6701 47.1401 37.5149 49.5 35.6036C46.2889 33.0149 44.2038 28.9139 44.2038 24.3351Z" fill="#EB001B"/>
<path d="M72 24.3351C72 32.2588 65.776 38.6701 58.0839 38.6701C54.8368 38.6701 51.8599 37.5149 49.5 35.6036C52.7471 32.9732 54.7962 28.9139 54.7962 24.3351C54.7962 19.7562 52.7066 15.6923 49.5 13.0665C51.8554 11.1552 54.8323 10 58.0794 10C65.776 10 72 16.4531 72 24.3351Z" fill="#F79E1B"/>
</g>
<defs>
<clipPath id="clip0_1_655">
<rect width="45" height="36" fill="white" transform="translate(27 10)"/>
</clipPath>
</defs>
</svg>
