<svg width="100" height="56" viewBox="0 0 100 56" fill="none" xmlns="http://www.w3.org/2000/svg">
<path fill-rule="evenodd" clip-rule="evenodd" d="M92.7451 21.3341C91.5528 20.4851 89.7889 20.052 87.4533 20.052H81.3285L79.0582 33.1502H71.0388L71.5615 30.1702H76.3797L76.9513 26.8263H72.1168L72.6394 23.8636H77.6209L78.2743 20.0346H68.1642L66.0083 32.4572H62.3008L64.473 20.0346H59.1975L57.0416 32.4572H53.432L55.6043 20.0346H50.3288L48.0422 33.1329H39.9738L40.4801 30.1528H45.331L45.9026 26.8263H41.0518L41.5581 23.8463H46.6049L47.2582 20H15.7849L13.9883 30.43L10.4277 20.052H4.93991L2 36.9965H7.2265L9.00678 26.3239L12.4693 36.9965H31.2194L33.506 23.8983H36.4459L34.1593 36.9965H83.5008L84.938 28.7321L87.2573 36.9965H92.5001L90.0992 30.2395L90.6382 30.1182C91.8468 29.841 92.7941 29.2519 93.4474 28.3683C94.1008 27.4847 94.4437 26.3239 94.4437 24.9551C94.4274 23.3438 93.8721 22.1657 92.7451 21.3341ZM26.6789 33.1502H18.6758L19.1985 30.1702H24.229L24.8006 26.8263H19.8191L20.2928 23.8809H28.2958L26.6789 33.1502ZM88.4169 27.4327C87.8943 27.8312 87.1267 28.0045 86.0814 28.0045H85.036L85.8364 23.4651H86.604C87.4696 23.4651 88.1066 23.6211 88.5313 23.9156C88.8743 24.1582 89.2663 24.6086 89.2663 25.4922C89.2989 26.5837 88.8253 27.1555 88.4169 27.4327Z" fill="#83BA3B"/>
<path fill-rule="evenodd" clip-rule="evenodd" d="M96.7958 35.9054L96.6652 33.2372L97.7758 33.1679C97.9555 33.1506 98.1188 33.1679 98.2821 33.2199C98.3964 33.2546 98.5108 33.3412 98.5761 33.4625C98.6578 33.5837 98.6904 33.7224 98.7068 33.861C98.7231 34.0342 98.6741 34.2075 98.5598 34.3461C98.4291 34.502 98.2331 34.606 98.0371 34.6233C98.1188 34.6579 98.1841 34.6926 98.2495 34.7446C98.3638 34.8485 98.4618 34.9525 98.5434 35.0911L99.0171 35.7841L98.6088 35.8014L98.2495 35.2643C98.1515 35.1084 98.0535 34.9871 97.9881 34.9178C97.9391 34.8485 97.8738 34.7965 97.8085 34.7446C97.7595 34.7099 97.7105 34.6926 97.6451 34.6753C97.6234 34.6753 97.6016 34.6733 97.5798 34.6714C97.5362 34.6676 97.4927 34.6637 97.4491 34.6753L97.0572 34.6926L97.1225 35.8707L96.7958 35.9054ZM97.0572 34.3981L97.7758 34.3634C97.8901 34.3634 98.0208 34.3461 98.1351 34.2941C98.2168 34.2595 98.2821 34.2075 98.3148 34.1208C98.3474 34.0515 98.3801 33.9649 98.3638 33.8783C98.3638 33.757 98.2984 33.6531 98.2168 33.5664C98.1024 33.4798 97.9555 33.4451 97.8085 33.4625L97.0081 33.4971L97.0572 34.3981Z" fill="#83BA3B"/>
<path fill-rule="evenodd" clip-rule="evenodd" d="M95.3094 34.6405C95.2441 33.2718 96.2404 32.0936 97.5307 32.0243C98.821 31.955 99.9316 32.9946 99.997 34.3806C100.062 35.7493 99.066 36.9275 97.7757 36.9968C96.4854 37.0661 95.3748 36.0092 95.3094 34.6405ZM97.498 32.3882C96.4364 32.4748 95.6198 33.4623 95.7014 34.6058C95.7504 35.6974 96.5997 36.5636 97.6287 36.5463C98.7067 36.5463 99.5886 35.628 99.5886 34.4846V34.294C99.507 33.1678 98.576 32.3015 97.498 32.3882Z" fill="#83BA3B"/>
</svg>
