<svg width="100" height="56" viewBox="0 0 100 56" fill="none" xmlns="http://www.w3.org/2000/svg">
<path d="M49.5599 21.9078C48.2052 21.9078 47.2154 22.3487 46.5703 23.2522C46.5703 22.6721 46.0975 22.2017 45.5148 22.2017H43V29.1517C42.9995 29.6179 43.0914 30.0797 43.2706 30.5107C43.4497 30.9416 43.7125 31.3333 44.0441 31.6634C44.3756 31.9934 44.7693 32.2554 45.2028 32.4343C45.6362 32.6132 46.1009 32.7055 46.5703 32.706V27.1175C46.5703 25.8782 47.2148 25.206 48.3334 25.206C49.3014 25.206 49.9466 25.7731 49.9466 26.8653V29.1517C49.9461 29.618 50.038 30.0798 50.2172 30.5108C50.3964 30.9418 50.6593 31.3335 50.9909 31.6636C51.3225 31.9937 51.7163 32.2556 52.1498 32.4345C52.5834 32.6133 53.0481 32.7056 53.5175 32.706V26.4244C53.5175 23.5043 51.8827 21.9078 49.5599 21.9078ZM60.1182 33C61.7314 33 63.0861 32.4748 64.183 31.4034C65.3017 30.3321 65.8607 29.0086 65.8607 27.4539C65.8607 25.8991 65.3017 24.5966 64.1837 23.5252C63.0861 22.4539 61.7314 21.9078 60.1182 21.9078C58.5267 21.9078 57.172 22.4539 56.054 23.5252C54.9347 24.5966 54.3757 25.8991 54.3757 27.4539C54.3757 29.0086 54.9347 30.3321 56.0534 31.4034C57.1713 32.4748 58.5267 33 60.1182 33ZM60.1182 29.639C58.8924 29.639 57.9677 28.7356 57.9677 27.4539C57.9677 26.1722 58.8924 25.2687 60.1182 25.2687C61.3874 25.2687 62.2904 26.1722 62.2904 27.4539C62.2904 28.7356 61.3874 29.639 60.1182 29.639ZM74.792 23.1685C74.0607 22.3278 73.0499 21.9078 71.7379 21.9078C70.2977 21.9078 69.0929 22.433 68.1249 23.5043C67.1568 24.5547 66.684 25.8782 66.684 27.4539C66.684 29.0295 67.1575 30.353 68.1242 31.4244C69.0929 32.4748 70.297 33 71.7379 33C73.0499 33 74.0607 32.58 74.792 31.7392C74.792 32.2736 75.2267 32.706 75.7626 32.706H78.3623V18C77.4143 18.0012 76.5055 18.3764 75.836 19.0431C75.1665 19.7098 74.7909 20.6133 74.792 21.555V23.1685ZM70.8988 29.1131C70.491 28.6938 70.2753 28.147 70.2753 27.4539C70.2753 26.7608 70.4904 26.2147 70.8994 25.7946C71.3078 25.3739 71.8675 25.1642 72.5337 25.1642C73.2005 25.1642 73.7601 25.3739 74.1685 25.794C74.5769 26.2147 74.792 26.7608 74.792 27.4539C74.792 28.147 74.5769 28.6938 74.1685 29.1131C73.7601 29.5338 73.2005 29.7442 72.5337 29.7442C71.8675 29.7442 71.3078 29.5338 70.8994 29.1138L70.8988 29.1131ZM87.4297 23.1685C86.6984 22.3278 85.6876 21.9078 84.3757 21.9078C82.9348 21.9078 81.7307 22.433 80.7626 23.5043C79.7946 24.5547 79.3217 25.8782 79.3217 27.4539C79.3217 29.0295 79.7946 30.353 80.7626 31.4244C81.7307 32.4748 82.9348 33 84.3757 33C85.6876 33 86.6984 32.58 87.4297 31.7392C87.4297 32.2736 87.8644 32.706 88.4004 32.706H91V22.2017H88.4004C87.8644 22.2017 87.4297 22.6342 87.4297 23.1685ZM83.5372 29.1131C83.1281 28.6938 82.9131 28.147 82.9131 27.4539C82.9131 26.7608 83.1281 26.2147 83.5372 25.7946C83.9456 25.3739 84.5046 25.1642 85.1714 25.1642C85.8382 25.1642 86.3972 25.3739 86.8063 25.794C87.2147 26.2147 87.4297 26.7608 87.4297 27.4539C87.4297 28.147 87.2147 28.6938 86.8063 29.1131C86.3972 29.5338 85.8382 29.7442 85.1714 29.7442C84.5046 29.7442 83.9456 29.5338 83.5372 29.1138V29.1131Z" fill="white"/>
<path fill-rule="evenodd" clip-rule="evenodd" d="M20.3546 14C14.5897 14 9.91669 18.7954 9.91669 24.7114V24.712V30.6615C9.91669 36.578 14.5903 41.3735 20.3546 41.3735H26.1534C31.9183 41.3735 36.5913 36.578 36.5913 30.6621V24.7114C36.5913 18.7954 31.9177 14 26.1534 14H20.3546ZM21.3912 22.9646C22.1358 21.8928 23.2777 21.3697 24.842 21.3697C27.5226 21.3697 29.4098 23.2643 29.4098 26.7276V34.1794C27.1342 34.1794 25.2882 32.2854 25.2882 29.9498V27.2508C25.2882 25.9555 24.5436 25.2825 23.4267 25.2825C22.1352 25.2825 21.3906 26.0797 21.3906 27.5504V34.1794C19.115 34.1794 17.2696 32.2854 17.2696 29.9498V21.7186H20.1767C20.3364 21.7188 20.4944 21.7512 20.6419 21.8139C20.7893 21.8766 20.9233 21.9684 21.036 22.0841C21.1488 22.1998 21.2382 22.3371 21.2991 22.4882C21.3601 22.6393 21.3914 22.8012 21.3912 22.9646Z" fill="url(#paint0_linear_1_661)"/>
<defs>
<linearGradient id="paint0_linear_1_661" x1="23.254" y1="14" x2="23.254" y2="41.3735" gradientUnits="userSpaceOnUse">
<stop stop-color="#6935D2"/>
<stop offset="1" stop-color="#EC6C71"/>
</linearGradient>
</defs>
</svg>
