<svg width="100" height="56" viewBox="0 0 100 56" fill="none" xmlns="http://www.w3.org/2000/svg">
<path fill-rule="evenodd" clip-rule="evenodd" d="M43.0667 23.6126C42.647 23.3745 42.1066 23.5185 41.8616 23.9354C41.6166 24.3522 41.7599 24.8841 42.1796 25.1222C42.5994 25.3602 43.1398 25.2162 43.3848 24.7994C43.6298 24.3825 43.4865 23.8507 43.0667 23.6126ZM62.6796 34.7132C62.2311 34.7132 61.8101 34.4966 61.5478 34.1312L59.466 31.2269H58.4321V33.8535C58.4321 34.3283 58.049 34.7132 57.5757 34.7132C57.1029 34.7132 56.7198 34.3283 56.7198 33.8535V24.4624C56.7198 23.9876 57.1029 23.6027 57.5757 23.6027C58.049 23.6027 58.4321 23.9876 58.4321 24.4624V29.696H59.4813L61.3283 27.0986C61.5825 26.7406 61.994 26.5281 62.4321 26.5281C62.9847 26.5281 63.3052 27.1561 62.9824 27.6064L60.9317 30.4691L63.2393 33.5967C63.5805 34.0585 63.252 34.7132 62.6796 34.7132ZM33.9533 24.1029H36.0633C38.1615 24.1029 39.7506 25.6035 39.7506 27.833C39.7506 30.0472 38.1769 31.5478 36.0633 31.5478H33.8416V33.8302C33.8416 34.3178 33.4479 34.7132 32.9622 34.7132C32.4765 34.7132 32.0828 34.3179 32.0828 33.8302V25.981C32.0828 24.9437 32.9202 24.1029 33.9533 24.1029ZM33.8416 29.8956H35.9861C37.1433 29.8956 37.9455 29.0007 37.9455 27.833C37.9455 26.65 37.1433 25.7551 35.9861 25.7551H33.8416V29.8956ZM42.631 34.7132C42.1581 34.7132 41.7747 34.3283 41.7747 33.8535V27.3878C41.7747 26.913 42.1581 26.5281 42.631 26.5281C43.1039 26.5281 43.4873 26.913 43.4873 27.3878V33.8535C43.4873 34.3283 43.1039 34.7132 42.631 34.7132ZM50.2386 34.9254C52.2907 34.9254 53.9416 33.6521 54.3887 31.7423C54.4279 31.5514 54.2828 31.3725 54.0885 31.3725H53.2421C52.9938 31.3725 52.7671 31.5165 52.6607 31.7423C52.2136 32.7427 51.3342 33.3187 50.2386 33.3187C48.7575 33.3187 47.6158 32.1364 47.6158 30.6206C47.6158 29.1049 48.7421 27.9378 50.2386 27.9378C51.3185 27.9378 52.2442 28.5137 52.6765 29.4535C52.8085 29.7447 53.0983 29.9315 53.417 29.9315H53.9799C54.2314 29.9315 54.4207 29.7015 54.3734 29.4535C53.9105 27.574 52.306 26.3311 50.2386 26.3311C47.7547 26.3311 45.8724 28.1803 45.8724 30.6206C45.8724 33.061 47.7547 34.9254 50.2386 34.9254ZM68.7488 34.9254C70.7852 34.9254 72.1274 33.8947 72.1274 32.3031C72.1274 30.2917 70.4223 30.0156 69.0202 29.7885L69.0107 29.787L68.9918 29.7838C67.9975 29.6185 67.1596 29.4792 67.1596 28.7563C67.1596 28.1651 67.746 27.7559 68.6871 27.7559C69.6899 27.7559 70.307 28.1803 70.3376 28.9533C70.3376 29.0833 70.4381 29.1909 70.5675 29.1994L71.6221 29.2689C71.8038 29.2809 71.9579 29.1361 71.9579 28.9533C71.9268 27.3769 70.6617 26.3311 68.7331 26.3311C66.7892 26.3311 65.5087 27.3466 65.5087 28.8169C65.5087 30.7116 67.1443 31.0147 68.5325 31.2572C69.5511 31.424 70.4458 31.5907 70.4458 32.3789C70.4458 33.061 69.7359 33.4399 68.8106 33.4399C67.8073 33.4399 67.0668 32.9852 67.0208 32.1213C67.0208 31.9703 66.9041 31.8454 66.754 31.8358L65.7273 31.77C65.5254 31.7571 65.3545 31.9181 65.3545 32.1213C65.4005 33.8189 66.7274 34.9254 68.7488 34.9254ZM78.3089 26.3311C80.8703 26.3311 82.5672 28.2712 82.5672 30.651C82.5672 30.8329 82.5519 31.0147 82.5208 31.1966H75.7633C75.9792 32.5305 76.9514 33.349 78.3089 33.349C79.1535 33.349 79.8553 33.0267 80.3236 32.4725C80.489 32.2761 80.7161 32.1364 80.9726 32.1364H81.8006C82.0696 32.1364 82.258 32.415 82.1323 32.6535C81.3818 34.0736 79.9815 34.9254 78.3089 34.9254C75.8714 34.9254 74.0352 33.0762 74.0352 30.6206C74.0352 28.1803 75.8714 26.3311 78.3089 26.3311ZM80.8392 29.8324C80.5305 28.5895 79.5894 27.862 78.3089 27.862C77.0284 27.862 76.0873 28.6198 75.8097 29.8324H80.8392ZM84.7397 33.8535C84.7397 34.3283 85.1232 34.7132 85.596 34.7132C86.0688 34.7132 86.4524 34.3283 86.4524 33.8535V24.4624C86.4524 23.9876 86.0688 23.6027 85.596 23.6027C85.1232 23.6027 84.7397 23.9876 84.7397 24.4624V33.8535ZM90.2023 34.7132C89.7295 34.7132 89.3459 34.3283 89.3459 33.8535V24.4624C89.3459 23.9876 89.7295 23.6027 90.2023 23.6027C90.6751 23.6027 91.0586 23.9876 91.0586 24.4624V33.8535C91.0586 34.3283 90.6751 34.7132 90.2023 34.7132Z" fill="white"/>
<path d="M13.7652 21.3097C14.5012 20.0573 16.1313 19.6282 17.4061 20.3512L24.6604 24.466C25.9352 25.1891 26.3719 26.7906 25.6359 28.043L21.4477 35.17C20.7116 36.4224 19.0816 36.8515 17.8068 36.1284L10.5525 32.0136C9.27772 31.2906 8.84095 29.6891 9.57694 28.4367L13.7652 21.3097Z" fill="#4D3396"/>
</svg>
