<svg width="100" height="56" viewBox="0 0 100 56" fill="none" xmlns="http://www.w3.org/2000/svg">
<g clip-path="url(#clip0_1_669)">
<path fill-rule="evenodd" clip-rule="evenodd" d="M42.725 40.6835C42.8514 40.6835 42.9729 40.6339 43.0631 40.5454C43.1533 40.457 43.2051 40.3367 43.2073 40.2104V24.7185C43.2073 23.4796 43.7003 22.2915 44.5779 21.4154C45.4555 20.5394 46.6458 20.0473 47.8869 20.0473H52.4566C53.6933 20.054 54.877 20.5491 55.7492 21.4244C56.6213 22.2997 57.1108 23.484 57.1108 24.7185V28.0129C57.1086 29.2511 56.6148 30.4379 55.7377 31.3135C54.8606 32.189 53.6716 32.6819 52.4312 32.6841H46.0083C45.8826 32.6841 45.7621 32.7339 45.6732 32.8226C45.5844 32.9114 45.5344 33.0317 45.5344 33.1571C45.5344 33.2826 45.5844 33.4029 45.6732 33.4916C45.7621 33.5803 45.8826 33.6302 46.0083 33.6302H52.465C53.9583 33.6302 55.3905 33.0386 56.4472 31.9854C57.5039 30.9322 58.0987 29.5034 58.1009 28.0129V24.7185C58.1009 23.2302 57.5092 21.8027 56.4557 20.7494C55.4021 19.6962 53.973 19.1034 52.482 19.1012H47.9123C46.4191 19.1012 44.9868 19.6927 43.9302 20.746C42.8735 21.7992 42.2787 23.2279 42.2765 24.7185V40.1766C42.2719 40.2395 42.2799 40.3026 42.3001 40.3623C42.3202 40.4219 42.3522 40.477 42.3939 40.5242C42.4357 40.5714 42.4865 40.6098 42.5434 40.6372C42.6002 40.6645 42.6619 40.6803 42.725 40.6835Z" fill="white"/>
<path fill-rule="evenodd" clip-rule="evenodd" d="M62.4637 33.7208C62.5847 33.7186 62.7001 33.6668 62.785 33.5768C62.8699 33.4867 62.9174 33.3654 62.9174 33.2391V21.6955C62.9185 21.3552 62.8551 21.0181 62.731 20.7034C62.6069 20.3887 62.4244 20.1026 62.1941 19.8616C61.9638 19.6206 61.6901 19.4293 61.3888 19.2988C61.0874 19.1684 60.7644 19.1012 60.4381 19.1012H58.5017C58.3908 19.1166 58.289 19.1735 58.2152 19.2614C58.1415 19.3492 58.1009 19.4619 58.1009 19.5787C58.1009 19.6954 58.1415 19.8081 58.2152 19.896C58.289 19.9838 58.3908 20.0407 58.5017 20.0561H60.4057C60.6117 20.0561 60.8157 20.0986 61.006 20.1811C61.1962 20.2636 61.369 20.3845 61.5143 20.5368C61.6596 20.6891 61.7746 20.8699 61.8527 21.0688C61.9308 21.2677 61.9705 21.4806 61.9694 21.6955V33.2391C61.9704 33.3049 61.9841 33.3699 62.0098 33.4301C62.0354 33.4903 62.0723 33.5445 62.1185 33.5894C62.1646 33.6344 62.2189 33.6692 62.2782 33.6918C62.3376 33.7143 62.4006 33.7242 62.4637 33.7208Z" fill="white"/>
<path d="M62.5297 17.541L61.7076 16.7115C61.655 16.661 61.6132 16.6003 61.5846 16.5331C61.556 16.4658 61.5413 16.3934 61.5413 16.3202C61.5413 16.247 61.556 16.1745 61.5846 16.1073C61.6132 16.04 61.655 15.9793 61.7076 15.9289L62.5297 15.0994C62.5784 15.0442 62.6381 15.0001 62.705 14.9699C62.7718 14.9397 62.8442 14.924 62.9174 14.924C62.9906 14.924 63.063 14.9397 63.1299 14.9699C63.1967 15.0001 63.2564 15.0442 63.3052 15.0994L64.1272 15.9289C64.1798 15.9793 64.2216 16.04 64.2502 16.1073C64.2788 16.1745 64.2936 16.247 64.2936 16.3202C64.2936 16.3934 64.2788 16.4658 64.2502 16.5331C64.2216 16.6003 64.1798 16.661 64.1272 16.7115L63.3052 17.541C63.2552 17.594 63.195 17.6363 63.1284 17.6651C63.0617 17.694 62.9899 17.7089 62.9174 17.7089C62.8449 17.7089 62.7731 17.694 62.7064 17.6651C62.6398 17.6363 62.5796 17.594 62.5297 17.541Z" fill="#32BCAD"/>
<path fill-rule="evenodd" clip-rule="evenodd" d="M77.5873 24.8309C77.3938 25.0211 77.1342 25.1275 76.8639 25.1275C76.5935 25.1275 76.3339 25.0211 76.1404 24.8309L71.6766 20.3266C71.29 19.9377 70.8311 19.6293 70.3261 19.419C69.8211 19.2087 69.28 19.1008 68.7336 19.1012H66.8181C66.6961 19.1012 66.579 19.15 66.4926 19.237C66.4063 19.324 66.3578 19.4419 66.3578 19.5649C66.3578 19.6886 66.406 19.8074 66.4921 19.8957C66.5782 19.984 66.6953 20.0347 66.8181 20.0368H68.7336C69.1579 20.0366 69.5782 20.1206 69.9703 20.2839C70.3624 20.4473 70.7188 20.6869 71.0189 20.989L75.491 25.4933C75.856 25.8583 76.3495 26.0632 76.8639 26.0632C77.3782 26.0632 77.8717 25.8583 78.2367 25.4933L82.6923 21.0056C82.9935 20.7025 83.3512 20.4623 83.7448 20.2989C84.1384 20.1355 84.5602 20.0521 84.9859 20.0534H86.5396C86.6557 20.0518 86.767 20.0069 86.8521 19.9273C86.9371 19.8478 86.9898 19.7393 87 19.6228C87 19.4999 86.9515 19.3819 86.8652 19.295C86.7788 19.208 86.6617 19.1592 86.5396 19.1592H84.9859C83.8969 19.1547 82.8494 19.5797 82.0676 20.3432L77.5873 24.8309Z" fill="white"/>
<path fill-rule="evenodd" clip-rule="evenodd" d="M66.3578 33.2489C66.3578 33.3728 66.406 33.4918 66.4921 33.5802C66.5782 33.6686 66.6953 33.7193 66.8181 33.7215H68.7336C69.8381 33.7193 70.8966 33.275 71.6766 32.4861L76.1404 27.9838C76.2352 27.8876 76.3479 27.8112 76.472 27.759C76.5962 27.7069 76.7294 27.6801 76.8639 27.6801C76.9983 27.6801 77.1315 27.7069 77.2557 27.759C77.3798 27.8112 77.4925 27.8876 77.5873 27.9838L82.0676 32.4612C82.85 33.2513 83.9116 33.6957 85.0188 33.6966H86.5725C86.6854 33.6868 86.7909 33.6359 86.8695 33.5536C86.9481 33.4713 86.9944 33.3631 87 33.2489C87 33.1258 86.9515 33.0077 86.8652 32.9206C86.7788 32.8335 86.6617 32.7846 86.5396 32.7846H84.9859C84.5597 32.7844 84.1377 32.6993 83.7441 32.5342C83.3505 32.3692 82.9931 32.1274 82.6923 31.8228L78.2367 27.3371C78.0571 27.1541 77.8433 27.0088 77.6076 26.9097C77.372 26.8105 77.1192 26.7595 76.8639 26.7595C76.6085 26.7595 76.3557 26.8105 76.1201 26.9097C75.8844 27.0088 75.6706 27.1541 75.491 27.3371L71.0189 31.8394C70.4135 32.4526 69.5916 32.7985 68.7336 32.8012H66.8181C66.6988 32.8011 66.5842 32.8477 66.4983 32.9312C66.4124 33.0148 66.362 33.1287 66.3578 33.2489Z" fill="white"/>
<path d="M30.8416 36.0678C30.3736 36.0694 29.9099 35.9738 29.477 35.7866C29.0442 35.5993 28.6507 35.324 28.319 34.9765L24.6781 31.144C24.5511 31.0112 24.3794 30.9367 24.2005 30.9367C24.0215 30.9367 23.8499 31.0112 23.7229 31.144L20.082 34.9851C19.7508 35.3364 19.3564 35.6146 18.9219 35.8034C18.4873 35.9923 18.0214 36.088 17.5513 36.085H16.8165L21.429 40.9401C21.7709 41.3002 22.1768 41.5859 22.6237 41.7808C23.0705 41.9757 23.5495 42.076 24.0331 42.076C24.5168 42.076 24.9958 41.9757 25.4426 41.7808C25.8894 41.5859 26.2954 41.3002 26.6373 40.9401L31.2661 36.0678H30.8416Z" fill="#32BCAD"/>
<path d="M17.5504 22.9789C18.0215 22.9811 18.4874 23.0816 18.9213 23.2745C19.3552 23.4673 19.7484 23.7487 20.0783 24.1025L23.7233 27.945C23.8501 28.0775 24.0216 28.1519 24.2003 28.1519C24.3791 28.1519 24.5505 28.0775 24.6773 27.945L28.306 24.1025C28.6358 23.7529 29.0285 23.4758 29.461 23.2873C29.8936 23.0988 30.3575 23.0027 30.8257 23.0046H31.2661L26.6425 18.15C26.3016 17.7895 25.8962 17.5035 25.4498 17.3083C25.0034 17.1131 24.5247 17.0126 24.0413 17.0126C23.5579 17.0126 23.0792 17.1131 22.6328 17.3083C22.1864 17.5035 21.781 17.7895 21.4401 18.15L16.8165 22.9789H17.5504Z" fill="#32BCAD"/>
<path d="M35.6794 26.8311L32.8444 23.9746C32.7808 24.0006 32.713 24.0149 32.6443 24.0168H31.3269C30.6512 24.0203 30.0041 24.2927 29.5258 24.7751L25.807 28.5247C25.6429 28.6938 25.447 28.828 25.2307 28.9191C25.0144 29.0103 24.7822 29.0567 24.5479 29.0555C24.3144 29.0564 24.0829 29.0107 23.8669 28.9211C23.6508 28.8314 23.4544 28.6996 23.2888 28.5331L19.5533 24.733C19.0761 24.2491 18.4283 23.9763 17.7522 23.9746H16.168C16.102 23.9885 16.0339 23.9885 15.9679 23.9746L13.0995 26.8311C12.3953 27.5463 12 28.5142 12 29.5232C12 30.5321 12.3953 31.5001 13.0995 32.2153L15.9679 35.1139C16.0312 35.1012 16.0963 35.1012 16.1596 35.1139H17.7522C18.4281 35.1113 19.0756 34.8387 19.5533 34.3555L23.2888 30.5891C23.6265 30.2655 24.0742 30.0851 24.5396 30.0851C25.0049 30.0851 25.4526 30.2655 25.7903 30.5891L29.5092 34.305C29.9888 34.7843 30.6357 35.0536 31.3102 35.0549H32.611C32.6796 35.0568 32.7474 35.071 32.8111 35.097L35.6628 32.2153C36.3692 31.5023 36.7675 30.5356 36.7706 29.5267C36.7737 28.5177 36.3814 27.5486 35.6794 26.8311Z" fill="#32BCAD"/>
<path d="M46.454 38.764C46.2443 38.7751 46.0363 38.8156 45.8337 38.8846V39.8953C45.9873 39.9666 46.15 40.0012 46.3137 39.9973C46.7272 39.9973 46.9266 39.8212 46.9266 39.3668C46.9266 38.9124 46.7641 38.764 46.454 38.764ZM45.7156 40.6835V38.6435H45.8337V38.7269C46.044 38.6574 46.2591 38.6139 46.4761 38.5971C46.6294 38.5829 46.7815 38.6389 46.9044 38.7548C46.9707 38.8359 47.0217 38.9347 47.0536 39.0438C47.0856 39.1529 47.0977 39.2696 47.089 39.3853C47.0967 39.5151 47.076 39.645 47.0291 39.761C46.9823 39.877 46.911 39.9748 46.8232 40.0437C46.6737 40.1344 46.5092 40.1789 46.3432 40.1735C46.1755 40.1739 46.0088 40.1426 45.8485 40.0808V40.6835H45.7156Z" fill="white"/>
<path d="M48.4675 38.7337C48.0874 38.7337 47.9177 38.8807 47.9177 39.2808C47.9177 39.6809 48.0874 39.8442 48.4675 39.8442C48.8476 39.8442 49.0173 39.7054 49.0173 39.3053C49.0173 38.9052 48.8476 38.7337 48.4675 38.7337ZM48.9563 39.8442C48.8105 39.954 48.6387 40.0028 48.4675 39.9831C48.2966 39.9987 48.1258 39.9502 47.9788 39.8442C47.9104 39.7785 47.8566 39.6934 47.8222 39.5964C47.7879 39.4995 47.774 39.3939 47.782 39.289C47.7758 39.1843 47.7904 39.0793 47.8247 38.9828C47.8589 38.8862 47.9117 38.8008 47.9788 38.7337C48.1305 38.6425 48.2979 38.5949 48.4675 38.5949C48.6372 38.5949 48.8045 38.6425 48.9563 38.7337C49.0247 38.7995 49.0785 38.8846 49.1128 38.9815C49.1472 39.0784 49.161 39.1841 49.1531 39.289C49.1623 39.394 49.149 39.5002 49.1146 39.5973C49.0801 39.6945 49.0256 39.7795 48.9563 39.8442Z" fill="white"/>
<path d="M51.8313 39.9873L51.2435 38.8284L50.6278 39.9873H50.4692L49.8441 38.5949H50.04L50.6278 39.7625L51.1875 38.5949H51.3462L51.9059 39.7625L52.4098 38.5949H52.5963L51.9806 39.9873H51.8313Z" fill="white"/>
<path d="M53.2789 38.7353C52.8945 38.7353 52.7614 38.9228 52.7392 39.1919H53.8111C53.7742 38.9228 53.6633 38.7353 53.2789 38.7353ZM53.2789 39.9829C53.1041 40.0031 52.9285 39.954 52.7836 39.8443C52.7176 39.7726 52.6669 39.6857 52.6349 39.5898C52.603 39.494 52.5906 39.3915 52.5987 39.2898C52.5935 39.1834 52.6108 39.0772 52.6493 38.9795C52.6878 38.8819 52.7464 38.7955 52.8205 38.7271C52.9607 38.6338 53.1227 38.5884 53.2863 38.5967C53.4524 38.5852 53.6177 38.6308 53.7594 38.7271C53.8372 38.8003 53.897 38.894 53.9332 38.9995C53.9694 39.105 53.9808 39.2189 53.9664 39.3306H52.7318C52.7318 39.5997 52.8205 39.8443 53.2863 39.8443C53.4922 39.8373 53.6973 39.8128 53.8998 39.7709V39.9095C53.6922 39.9504 53.4822 39.9749 53.2715 39.9829H53.2789Z" fill="white"/>
<path d="M54.6605 39.9873V38.6369H54.7692V38.7124C54.9569 38.6436 55.1518 38.6041 55.3486 38.5949V38.7459C55.1616 38.752 54.9763 38.7888 54.7981 38.855V39.9873H54.6605Z" fill="white"/>
<path d="M56.0304 38.7357C55.6464 38.7357 55.5209 38.9232 55.4914 39.1922H56.562C56.5546 38.9232 56.4143 38.7357 56.0304 38.7357ZM56.0304 39.9829C55.8558 40.0031 55.6804 39.954 55.5357 39.8443C55.4698 39.7727 55.4191 39.6858 55.3872 39.59C55.3553 39.4942 55.3429 39.3917 55.3511 39.29C55.3475 39.1839 55.3656 39.0783 55.4039 38.981C55.4422 38.8836 55.4999 38.797 55.5726 38.7276C55.7125 38.6343 55.8744 38.5889 56.0378 38.5971C56.2038 38.584 56.3694 38.6297 56.5103 38.7276C56.5898 38.7992 56.6507 38.8926 56.687 38.9985C56.7233 39.1045 56.7337 39.219 56.7171 39.3308H55.4914C55.4914 39.5998 55.5726 39.8443 56.0378 39.8443C56.2435 39.8378 56.4484 39.8133 56.6506 39.771V39.9095C56.4433 39.9509 56.2335 39.9755 56.023 39.9829H56.0304Z" fill="white"/>
<path d="M58.6641 38.6968C58.5106 38.6312 58.3493 38.5975 58.1867 38.597C57.7755 38.597 57.5772 38.7694 57.5772 39.2137C57.5772 39.6581 57.7387 39.8304 58.0472 39.8304C58.2554 39.815 58.4619 39.7756 58.6641 39.7125V38.6968ZM58.6641 39.9483V39.8576C58.4526 39.9263 58.2361 39.9688 58.0178 39.9845C57.8686 40.0005 57.7199 39.9489 57.5992 39.8394C57.5331 39.7583 57.4824 39.6602 57.4506 39.552C57.4189 39.4438 57.4069 39.3283 57.4156 39.2137C57.4093 39.0883 57.4306 38.9632 57.4771 38.8514C57.5237 38.7397 57.5937 38.6456 57.68 38.5789C57.8268 38.4831 57.9914 38.4362 58.1574 38.4429C58.3239 38.447 58.4892 38.4775 58.6494 38.5336V37.8988H58.789V39.9755L58.6641 39.9483Z" fill="white"/>
<path d="M60.9103 38.6069C60.7028 38.6178 60.497 38.6574 60.2966 38.725V39.7146C60.4486 39.7837 60.6096 39.8176 60.7715 39.8145C61.1806 39.8145 61.3778 39.6419 61.3778 39.1971C61.3778 38.7522 61.2171 38.6069 60.9103 38.6069ZM61.2609 39.8598C61.1131 39.9487 60.9503 39.9922 60.7861 39.987C60.6072 39.9861 60.4295 39.9493 60.2601 39.878V39.9506H60.1651V37.8988H60.3112V38.5979C60.5167 38.5298 60.7272 38.4872 60.9395 38.4708C61.0887 38.4582 61.2366 38.513 61.3559 38.6251C61.4215 38.7045 61.472 38.8012 61.5036 38.9081C61.5352 39.0149 61.5471 39.1291 61.5386 39.2425C61.5406 39.3668 61.516 39.4895 61.4672 39.598C61.4184 39.7065 61.3472 39.7969 61.2609 39.8598Z" fill="white"/>
<path d="M62.2593 40.6835V40.5179H62.4388C62.5196 40.5253 62.6002 40.4996 62.6679 40.4446C62.7355 40.3897 62.7865 40.3087 62.8127 40.2143L62.8651 40.0947L62.2294 38.6133H62.3939L62.9324 39.8739L63.4485 38.5949H63.6055L62.9324 40.2603C62.8952 40.3868 62.8253 40.4949 62.7335 40.568C62.6416 40.6411 62.5329 40.6752 62.4238 40.6651L62.2593 40.6835Z" fill="white"/>
<path d="M65.976 39.8038H65.3944V40.3414H65.9853C66.3887 40.3414 66.5388 40.3414 66.5388 40.0679C66.5388 39.7943 66.3324 39.8038 65.976 39.8038ZM65.8728 38.936H65.3944V39.4831H65.8728C66.2761 39.4831 66.4356 39.4831 66.4356 39.2096C66.4356 38.936 66.2292 38.936 65.8728 38.936ZM66.8108 40.53C66.5161 40.6597 66.1924 40.7086 65.8728 40.6715H64.9816V38.6059H65.854C66.1513 38.5719 66.4522 38.6174 66.7264 38.738C66.7956 38.7812 66.8514 38.8429 66.8879 38.9161C66.9243 38.9894 66.9398 39.0714 66.9327 39.153C66.9405 39.254 66.9129 39.3546 66.8547 39.4373C66.7964 39.52 66.7112 39.5796 66.6138 39.6057C66.8765 39.6717 67.0453 39.8038 67.0453 40.0962C67.0497 40.1866 67.027 40.2763 66.9802 40.3536C66.9334 40.431 66.8646 40.4924 66.7827 40.53H66.8108Z" fill="white"/>
<path d="M68.0873 39.3986H67.671C67.4341 39.3986 67.3551 39.4475 67.3551 39.5699C67.3551 39.6922 67.4197 39.7493 67.6064 39.7493C67.7683 39.7409 67.9292 39.7163 68.0873 39.6759V39.3986ZM68.1591 39.9532V39.8716C67.9532 39.9374 67.7412 39.9757 67.5274 39.9858C67.405 39.9949 67.2829 39.9637 67.1757 39.8961C67.1334 39.8586 67.0997 39.8101 67.0772 39.7548C67.0547 39.6995 67.0442 39.6389 67.0465 39.578C67.0425 39.5029 67.0589 39.4281 67.0936 39.3639C67.1282 39.2997 67.1795 39.2492 67.2403 39.2192C67.3802 39.1608 67.5293 39.1358 67.6782 39.1458C67.8169 39.1379 67.9558 39.1379 68.0945 39.1458C68.0945 38.9338 67.9797 38.8685 67.6494 38.8685H67.2259V38.5994C67.391 38.5994 67.5705 38.5994 67.7212 38.5994C67.9073 38.5803 68.0943 38.6228 68.2596 38.7217C68.3184 38.774 68.364 38.8431 68.3917 38.9218C68.4195 39.0006 68.4284 39.0863 68.4175 39.1703V39.9858L68.1591 39.9532Z" fill="white"/>
<path d="M70.1822 39.979V39.2381C70.1822 38.9884 70.0771 38.9052 69.8879 38.9052C69.7317 38.9137 69.5767 38.9416 69.4254 38.9884V39.979H69.1101V38.6388H69.3694V38.722C69.5657 38.6537 69.7678 38.6118 69.972 38.5972C70.111 38.5834 70.2492 38.6341 70.3574 38.7387C70.4039 38.7919 70.4395 38.8571 70.4614 38.9293C70.4832 39.0015 70.4908 39.0787 70.4835 39.1549V39.9873L70.1822 39.979Z" fill="white"/>
<path d="M71.8931 39.9845C71.7162 39.9997 71.5394 39.9535 71.3938 39.8539C71.3164 39.7824 71.2567 39.6945 71.2192 39.5969C71.1817 39.4993 71.1674 39.3946 71.1774 39.2908C71.1723 39.182 71.1948 39.0737 71.2427 38.9755C71.2906 38.8772 71.3625 38.7921 71.452 38.7277C71.6321 38.6295 71.8372 38.5841 72.0428 38.5971H72.5172V38.9236C72.3758 38.9157 72.2341 38.9157 72.0928 38.9236C71.7349 38.9236 71.5685 39.0297 71.5685 39.3316C71.5685 39.6336 71.6933 39.7397 71.9846 39.7397C72.1746 39.7322 72.3638 39.7104 72.5505 39.6744V39.9437C72.3331 39.9772 72.113 39.9909 71.8931 39.9845Z" fill="white"/>
<path d="M73.5862 38.8767C73.1742 38.8767 72.9921 38.9832 72.9921 39.2862C72.9921 39.5891 73.1742 39.7202 73.5862 39.7202C73.9982 39.7202 74.1706 39.6055 74.1706 39.3107C74.1706 39.0159 73.9982 38.8767 73.5862 38.8767ZM74.3239 39.8594C74.0888 39.9438 73.8364 39.9873 73.5814 39.9873C73.3263 39.9873 73.0739 39.9438 72.8388 39.8594C72.7479 39.788 72.6754 39.7014 72.6257 39.6048C72.5761 39.5082 72.5504 39.4039 72.5504 39.2984C72.5504 39.193 72.5761 39.0887 72.6257 38.9921C72.6754 38.8955 72.7479 38.8088 72.8388 38.7375C73.0666 38.6296 73.3265 38.5812 73.5862 38.5983C73.8427 38.5824 74.0991 38.6308 74.3239 38.7375C74.4236 38.8015 74.5024 38.8863 74.5527 38.9838C74.603 39.0813 74.6232 39.1883 74.6114 39.2943C74.6231 39.4016 74.6029 39.5097 74.5526 39.6084C74.5024 39.7072 74.4237 39.7936 74.3239 39.8594Z" fill="white"/>
<path d="M76.3605 39.9849C76.1019 40.0019 75.8452 39.9308 75.6336 39.7837C75.517 39.6775 75.4269 39.5463 75.3703 39.4004C75.3138 39.2544 75.2923 39.0977 75.3075 38.9422C75.3002 38.7775 75.3348 38.6135 75.408 38.4651C75.4811 38.3166 75.5907 38.1883 75.7268 38.0916C75.9888 37.9512 76.2864 37.8877 76.5842 37.9087C76.8232 37.8955 77.0627 37.8955 77.3017 37.9087V38.2654C77.0781 38.2654 76.8171 38.2654 76.6028 38.2654C76.025 38.2654 75.7827 38.4849 75.7827 38.9422C75.7827 39.3996 76.0064 39.6282 76.4351 39.6282C76.7489 39.619 77.0611 39.5792 77.367 39.5093V39.866C77.0357 39.9348 76.6989 39.9746 76.3605 39.9849Z" fill="white"/>
<path d="M78.0619 38.834C77.8081 38.834 77.7051 38.94 77.6846 39.144H78.4324C78.4256 38.9237 78.3158 38.834 78.0619 38.834ZM78.0139 39.9841C77.8497 40.0009 77.6856 39.9521 77.5473 39.8455C77.4845 39.7748 77.4359 39.6883 77.405 39.5923C77.3741 39.4963 77.3618 39.3932 77.369 39.2908C77.3646 39.1857 77.381 39.0808 77.4167 38.9845C77.4525 38.8883 77.5066 38.8032 77.5748 38.7361C77.7213 38.6314 77.8914 38.583 78.0619 38.5975C78.2291 38.5869 78.3955 38.6321 78.5422 38.728C78.6184 38.8082 78.676 38.9103 78.7096 39.0245C78.7432 39.1388 78.7517 39.2613 78.7343 39.3805H77.6846C77.6846 39.5844 77.7806 39.715 78.0894 39.715C78.2873 39.7079 78.4845 39.6834 78.6794 39.6415V39.9026C78.4597 39.9507 78.2372 39.978 78.0139 39.9841Z" fill="white"/>
<path d="M80.5027 39.979V39.2379C80.5027 38.9881 80.3977 38.9048 80.2086 38.9048C80.0524 38.9128 79.8975 38.9407 79.7463 38.9881V39.979H79.4312V38.6383H79.6903V38.7216C79.8889 38.6534 80.0933 38.6115 80.2996 38.5967C80.4384 38.5846 80.576 38.6352 80.6848 38.7383C80.7301 38.7923 80.7643 38.8579 80.785 38.93C80.8056 39.0022 80.8121 39.079 80.8039 39.1546V39.9873L80.5027 39.979Z" fill="white"/>
<path d="M82.4698 40.6706C82.3687 40.6807 82.2666 40.6653 82.1734 40.6258C82.0801 40.5864 81.9989 40.5243 81.9374 40.4454C81.8514 40.3037 81.8128 40.1395 81.8269 39.9754V39.3978H81.4954V39.0747H81.8269V38.5949H82.2287V39.0747H82.8716V39.3978H82.2287V39.9069C82.2061 40.0069 82.2061 40.1104 82.2287 40.2104C82.2575 40.2597 82.3004 40.2998 82.3521 40.3258C82.4038 40.3519 82.4621 40.3628 82.52 40.3573C82.6269 40.3681 82.7346 40.3681 82.8414 40.3573V40.6804C82.7175 40.6868 82.5932 40.6835 82.4698 40.6706Z" fill="white"/>
<path d="M82.8716 39.979V38.6366H83.0746V38.72C83.2204 38.6482 83.3722 38.6061 83.5258 38.5949H83.5596V38.9285H83.4694C83.3495 38.927 83.2299 38.9495 83.1141 38.9952V39.9873L82.8716 39.979Z" fill="white"/>
<path d="M85.3135 39.3427H84.883C84.6422 39.3427 84.5619 39.3917 84.5619 39.5141C84.5619 39.6365 84.6349 39.6936 84.8173 39.6936C84.9843 39.6846 85.1503 39.6601 85.3135 39.6201V39.3427ZM85.3792 39.8976V39.816C85.1699 39.8818 84.9543 39.9201 84.7371 39.9302C84.6126 39.9393 84.4885 39.9081 84.3795 39.8405C84.3366 39.8029 84.3022 39.7545 84.2794 39.6991C84.2566 39.6438 84.2458 39.5831 84.2481 39.5222C84.2446 39.4461 84.2624 39.3706 84.299 39.3062C84.3357 39.2419 84.3893 39.1919 84.4525 39.1632C84.5922 39.1047 84.7414 39.0797 84.8903 39.0898C85.0144 39.0898 85.1822 39.0898 85.3208 39.0898C85.3208 38.8776 85.1968 38.8123 84.8684 38.8123L84.4014 38.8694V38.6002C84.5692 38.6002 84.7517 38.6002 84.9049 38.6002C85.0942 38.5792 85.2847 38.6218 85.4522 38.7226C85.5133 38.774 85.561 38.8426 85.5905 38.9215C85.62 39.0004 85.6302 39.0866 85.62 39.1714V39.9873L85.3792 39.8976Z" fill="white"/>
<path d="M86.3119 37.8988H87V39.9874H86.3119V37.8988Z" fill="white"/>
</g>
<defs>
<clipPath id="clip0_1_669">
<rect width="75" height="55" fill="white" transform="translate(12 1)"/>
</clipPath>
</defs>
</svg>
