<svg width="100" height="56" viewBox="0 0 100 56" fill="none" xmlns="http://www.w3.org/2000/svg">
<path d="M62.5102 25.9188C61.0939 24.6677 59.3839 24.0562 57.4072 24.0562C55.4575 24.0562 53.7475 24.6685 52.3304 25.9188C50.9141 27.1426 50.1941 28.8461 50.1941 31.0285C50.1941 33.2108 50.9141 34.9128 52.3304 36.1638C53.7467 37.3877 55.4575 38 57.4072 38C59.3839 38 61.0939 37.3877 62.5102 36.1638C63.9534 34.9128 64.6735 33.21 64.6735 31.0285C64.6735 28.8469 63.9526 27.1426 62.5102 25.9188ZM54.7366 33.8216C53.9896 33.1037 53.6133 32.1716 53.6133 31.0277C53.6133 29.8838 53.9864 28.9525 54.7366 28.2602C55.0845 27.915 55.5006 27.6426 55.9595 27.4597C56.4185 27.2768 56.9108 27.1871 57.4064 27.1962C57.9061 27.187 58.4026 27.2765 58.8661 27.4594C59.3296 27.6422 59.7507 27.9146 60.104 28.2602C60.8772 28.9525 61.2535 29.883 61.2535 31.0277C61.2535 32.1724 60.8804 33.1029 60.104 33.8216C59.3569 34.5131 58.448 34.8592 57.4064 34.8592C56.9134 34.8669 56.4237 34.7792 55.9655 34.6011C55.5073 34.423 55.0897 34.1581 54.7366 33.8216ZM69.7256 37.6267V19.3671H66.3596V37.6267H69.7256ZM80.5897 24.4287V31.7145C80.5897 33.47 79.6371 34.6341 77.8239 34.6341C75.9797 34.6341 75.0525 33.4716 75.0525 31.7145V24.4287H71.6801V32.2733C71.6801 35.3124 73.6037 37.9992 77.8239 37.9992H77.8501C82.0441 37.9992 83.9645 35.2527 83.9645 32.2733V24.4287H80.5897ZM46.6122 24.4287L43.2462 33.3691L39.8802 24.4287H36.3006L41.6719 37.6275H44.8252L50.1957 24.4287H46.6122ZM36.3165 30.6552C36.3165 28.7398 35.7028 27.1698 34.5001 25.9188C33.2974 24.6677 31.7502 24.0562 29.8528 24.0562C27.9031 24.0562 26.2455 24.722 24.8832 26.0251C23.5463 27.3297 22.8803 28.9788 22.8803 31.0277C22.8803 33.0765 23.5479 34.7537 24.857 36.0567C26.1939 37.3613 27.7967 37.9992 29.6932 37.9992C32.6067 37.9992 34.6629 36.7218 35.9164 34.1406L33.4062 32.7033C32.5798 34.326 31.3755 35.1246 29.7464 35.1246C27.7435 35.1246 26.3272 33.8472 26.1129 31.8255H36.3157V30.6544L36.3165 30.6552ZM29.7441 26.6102C31.6406 26.6102 32.8973 27.6743 33.2172 29.3777H26.1113C26.6202 27.8077 28.0079 26.6102 29.7448 26.6102H29.7441ZM22.8795 37.6267L18.3632 29.751C21.2203 28.7134 22.6366 26.9044 22.6366 24.2696C22.6397 21.0496 20.0732 19 15.9863 19H8V37.6267H11.5264V30.07H14.5192L18.8458 37.6275L22.8795 37.6267ZM15.9863 22.0865C18.0702 22.0865 19.1126 22.9114 19.1126 24.5342C19.1126 26.157 18.0694 26.982 15.9863 26.982H11.5264V22.0865H15.9863ZM89.6708 37.9992C87.5043 37.9992 85.7475 36.2484 85.7475 34.0878V20.8626H89.1135V24.4333H92V27.1473H89.1135V33.872C89.1135 34.5053 89.6287 35.0183 90.2654 35.0183H92V37.9992H89.6708Z" fill="white"/>
</svg>
