<svg width="100" height="56" viewBox="0 0 100 56" fill="none" xmlns="http://www.w3.org/2000/svg">
<path d="M64.1238 22.525C65.6432 22.525 66.8736 21.2884 66.8736 19.7637C66.8736 18.239 65.6424 17 64.1238 17C62.6051 17 61.3764 18.2382 61.3764 19.7637C61.3762 20.1264 61.4472 20.4855 61.5853 20.8206C61.7233 21.1558 61.9256 21.4603 62.1808 21.7167C62.4359 21.9732 62.7388 22.1767 63.0722 22.3155C63.4056 22.4543 63.7629 22.5258 64.1238 22.5258M43.0624 24.0143C42.9383 24.3363 42.0451 26.8642 39.8849 29.491V18.2559L34.1297 19.399V39.7665H39.8857V33.4711C41.5533 35.9828 42.3768 39.7665 42.3768 39.7665H49.2709C48.5901 36.9167 45.6064 31.6638 45.6064 31.6638C47.3791 29.3658 48.7454 26.7785 49.6458 24.0151L43.0624 24.0143ZM58.1932 23.8018C53.0388 23.9684 50.4211 26.2926 50.4211 30.9135V39.7657H56.0457V32.5477C56.0457 29.7816 56.4062 28.603 59.6726 28.4823V23.8855C59.1232 23.768 58.1932 23.805 58.1932 23.805M24.4777 26.2604C23.7729 26.2145 22.1404 26.1074 22.1404 24.631C22.1404 22.8494 24.4897 22.8494 25.3716 22.8494C26.9216 22.8494 28.9281 23.3083 30.3618 23.7406C30.8501 23.9448 31.3437 24.1359 31.8421 24.3138L31.9062 24.3315V19.4497L31.8196 19.424C30.1279 18.8282 28.1615 18.2567 24.5146 18.2567C18.2268 18.2567 16 21.9373 16 25.0915C16 26.9092 16.7754 31.188 23.9755 31.6815C24.5859 31.7194 26.2055 31.8127 26.2055 33.3399C26.2055 34.5998 24.879 35.3428 22.6491 35.3428C20.206 35.3428 17.8327 34.7165 16.3933 34.1224V39.1483C18.5496 39.7158 20.9798 40 23.8289 40C29.9766 40 32.7296 36.5174 32.7296 33.0654C32.7296 29.1513 29.6489 26.609 24.4793 26.2604M61.3379 39.769H66.916V24.0336H61.3363L61.3379 39.769ZM77.4203 19.2606V39.769H83V18.2583L77.4203 19.2606ZM69.2798 19.2606L74.8531 18.2583V39.769H69.2798V19.2589V19.2606Z" fill="#F521D3"/>
</svg>
