<svg width="100" height="56" viewBox="0 0 100 56" fill="none" xmlns="http://www.w3.org/2000/svg">
<path d="M45.0307 39.5156H39.2735L42.8716 16.5109H48.6295L45.0307 39.5156ZM34.4301 16.5109L28.9414 32.3337L28.292 28.9264L28.2925 28.9277L26.3553 18.5822C26.3553 18.5822 26.1211 16.5109 23.6243 16.5109H14.5504L14.444 16.9004C14.444 16.9004 17.2188 17.501 20.4662 19.5298L25.4681 39.5162H31.4666L40.6263 16.5109H34.4301ZM79.7136 39.5156H85L80.3909 16.5103H75.7629C73.6258 16.5103 73.1052 18.2247 73.1052 18.2247L64.5188 39.5156H70.5203L71.7205 36.0985H79.0393L79.7136 39.5156ZM73.3785 31.378L76.4035 22.7691L78.1053 31.378H73.3785ZM64.9689 22.043L65.7905 17.1029C65.7905 17.1029 63.2553 16.0998 60.6124 16.0998C57.7554 16.0998 50.9707 17.3989 50.9707 23.7155C50.9707 29.6587 58.9337 29.7326 58.9337 32.8543C58.9337 35.976 51.7911 35.4167 49.4339 33.4481L48.578 38.6135C48.578 38.6135 51.1487 39.9125 55.0764 39.9125C59.0053 39.9125 64.9323 37.7963 64.9323 32.0365C64.9323 26.0552 56.8977 25.4982 56.8977 22.8977C56.8983 20.2966 62.5053 20.6307 64.9689 22.043Z" fill="#2D4EF0"/>
<path d="M28.2925 28.9271L26.3553 18.5816C26.3553 18.5816 26.1211 16.5103 23.6243 16.5103H14.5504L14.444 16.8998C14.444 16.8998 18.8052 17.8401 22.9884 21.363C26.9883 24.7303 28.2925 28.9271 28.2925 28.9271Z" fill="#FAA61A"/>
</svg>
