<svg width="100" height="56" viewBox="0 0 100 56" fill="none" xmlns="http://www.w3.org/2000/svg">
<g clip-path="url(#clip0_1_702)">
<path d="M21.5135 11.0588H25.4234L28.6237 20.2017L32.0354 11.0588H34.4237L37.8355 20.0711L41.0426 11.0588H44.9729L39.1729 27.0784H36.6345L33.2227 17.9356L29.7291 27.0784H27.2521" fill="white"/>
<path d="M55.8246 17.485C55.5465 16.6093 54.9665 15.8496 54.1792 15.3297C53.3494 14.7694 52.3546 14.4766 51.339 14.4937C50.2303 14.4743 49.1457 14.8048 48.2531 15.4342C47.5702 15.9964 47.0406 16.7093 46.7101 17.5111L55.8246 17.485ZM60.0234 20.6526H46.5258C46.6778 21.712 47.2348 22.68 48.0892 23.3695C49.0096 24.0652 50.1602 24.422 51.3322 24.3753C52.0805 24.3839 52.8231 24.2491 53.5161 23.9788C54.2091 23.7084 54.8385 23.3081 55.3671 22.8013H59.4635C59.4355 23.37 59.2467 23.9207 58.9173 24.3949C58.1172 25.5263 57.0263 26.4417 55.7495 27.0531C54.3739 27.6566 52.8724 27.9514 51.3595 27.9152C50.1767 27.9597 48.997 27.7717 47.8931 27.3628C46.7893 26.9539 45.7848 26.3328 44.9418 25.5379C44.1252 24.7583 43.4841 23.8272 43.0578 22.8017C42.6316 21.7762 42.4294 20.678 42.4635 19.5749C42.4278 18.4536 42.6283 17.3369 43.0528 16.2912C43.4774 15.2455 44.1175 14.2922 44.935 13.4879C45.735 12.6952 46.6987 12.0704 47.7648 11.6533C48.8308 11.2361 49.976 11.0357 51.1274 11.0649C52.3173 11.0213 53.5037 11.214 54.6119 11.6311C55.72 12.0481 56.7257 12.6804 57.5655 13.4879C58.4075 14.3431 59.0608 15.3517 59.4866 16.4536C59.9123 17.5555 60.1019 18.7281 60.0439 19.9015" fill="white"/>
<path d="M68.7682 14.6669C68.1458 14.6523 67.527 14.7621 66.952 14.9892C66.3769 15.2162 65.8582 15.5555 65.4294 15.985C64.9802 16.4413 64.6312 16.9783 64.4028 17.5645C64.1744 18.1507 64.0713 18.7744 64.0994 19.3991C64.0349 20.677 64.5029 21.9275 65.4017 22.879C65.8308 23.3034 66.3456 23.641 66.9151 23.8717C67.4847 24.1023 68.0973 24.2211 68.7163 24.2211C69.3352 24.2211 69.9478 24.1023 70.5174 23.8717C71.0869 23.641 71.6017 23.3034 72.0308 22.879C72.9347 21.9389 73.4147 20.6988 73.3677 19.4254C73.415 18.1694 72.9424 16.946 72.0516 16.018C71.63 15.5868 71.1166 15.2462 70.5456 15.0188C69.9746 14.7915 69.3592 14.6828 68.7405 14.6998M64.2865 5.99997V13.1246C65.0025 12.4293 65.8512 11.8701 66.7871 11.4769C67.6949 11.1055 68.6737 10.917 69.6618 10.9233C70.7294 10.9116 71.7871 11.1193 72.7626 11.5322C73.7381 11.9451 74.6085 12.5535 75.3142 13.3158C76.8997 14.995 77.7346 17.1962 77.6417 19.4518C77.7084 21.689 76.8447 23.8609 75.238 25.4956C74.5241 26.2575 73.649 26.8675 72.6702 27.2854C71.6913 27.7034 70.6308 27.92 69.5579 27.921C68.609 27.9326 67.6671 27.7646 66.7871 27.4267C65.8556 27.0231 65.0084 26.4627 64.2865 25.7724V27.4794H60.0541V5.99997" fill="white"/>
<path d="M35.625 30.6452C35.0378 30.6348 34.4548 30.7414 33.9127 30.9583C33.3706 31.1752 32.8811 31.4976 32.475 31.9053C32.0486 32.3456 31.7173 32.8628 31.5003 33.4269C31.2833 33.9911 31.185 34.591 31.211 35.192C31.1825 35.802 31.2795 36.4115 31.4964 36.9855C31.7133 37.5595 32.0458 38.0868 32.475 38.5371C32.8792 38.9586 33.3722 39.2924 33.9212 39.5164C34.4702 39.7404 35.0625 39.8494 35.6588 39.8362C36.2467 39.8466 36.8301 39.7361 37.3698 39.512C37.9096 39.288 38.3933 38.9555 38.7884 38.5371C39.6493 37.6367 40.1059 36.4464 40.0592 35.2244C40.0972 34.0269 39.6487 32.8621 38.8087 31.9767C38.4105 31.5568 37.9234 31.2236 37.3801 30.9995C36.8368 30.7755 36.2499 30.6657 35.6588 30.6777M31.3868 27.4819V29.1902C32.0704 28.5244 32.8773 27.9869 33.7661 27.6053C34.6316 27.2519 35.5633 27.0728 36.5037 27.0792C37.5245 27.0638 38.5366 27.2614 39.4702 27.6584C40.4038 28.0553 41.2367 28.6423 41.9113 29.3786C43.4219 30.9918 44.2174 33.108 44.1284 35.2764C44.1652 36.3477 43.9817 37.4155 43.5885 38.4186C43.1953 39.4217 42.6001 40.3405 41.8369 41.1223C41.1584 41.8562 40.3255 42.4436 39.3934 42.8455C38.4613 43.2475 37.451 43.4549 36.4293 43.4541C35.5393 43.4636 34.6564 43.3001 33.8337 42.9735C32.9418 42.5984 32.1286 42.0701 31.4341 41.4146V48.1568H27.3784V27.4494" fill="#F7A519"/>
<path d="M52.5456 30.8178C51.9081 30.8033 51.2744 30.9147 50.684 31.1449C50.0937 31.375 49.5594 31.7191 49.1146 32.1555C48.6577 32.5943 48.2982 33.1167 48.0576 33.6913C47.817 34.2659 47.7002 34.881 47.7142 35.4997C47.6927 36.1294 47.8058 36.7566 48.0466 37.3431C48.2873 37.9296 48.6507 38.463 49.1146 38.9109C49.5586 39.3464 50.0917 39.69 50.6808 39.9201C51.2699 40.1503 51.9023 40.2621 52.5385 40.2486C53.187 40.2674 53.8326 40.1584 54.435 39.9282C55.0374 39.6981 55.5836 39.3517 56.0395 38.9109C56.5054 38.4575 56.8698 37.9183 57.1105 37.3261C57.3513 36.7339 57.4634 36.1012 57.4399 35.4663C57.4638 34.8404 57.3517 34.2165 57.1107 33.634C56.8697 33.0515 56.505 32.5231 56.0395 32.0819C55.5769 31.6524 55.0285 31.3162 54.4271 31.0933C53.8256 30.8704 53.1834 30.7653 52.5385 30.7843M57.2229 27.4936H60.8919V43.5326H57.2299V41.8404C56.4639 42.5201 55.5771 43.0637 54.6111 43.4457C53.7056 43.7834 52.7404 43.9514 51.7683 43.9406C50.6572 43.9498 49.5559 43.7415 48.5323 43.3285C47.5087 42.9156 46.5845 42.3067 45.8167 41.5395C44.9888 40.7537 44.3386 39.8141 43.9062 38.7787C43.4738 37.7432 43.2685 36.6341 43.303 35.5198C43.2609 34.4036 43.4543 33.2907 43.8717 32.2473C44.2891 31.204 44.922 30.2515 45.7326 29.4466C46.866 28.3412 48.3147 27.5786 49.8984 27.2539C51.4821 26.9293 53.1308 27.0568 54.6391 27.6207C55.6069 28.0263 56.4858 28.6027 57.2299 29.3195" fill="#F7A519"/>
<path d="M60.8919 27.0784H65.1501L69.4568 37.1403L74.2144 27.0784H78.4865L68.0906 48.9999H63.8116L67.2237 41.9298" fill="#F7A519"/>
</g>
<defs>
<clipPath id="clip0_1_702">
<rect width="62" height="43" fill="white" transform="translate(19 6)"/>
</clipPath>
</defs>
</svg>
