<svg width="16" height="16" viewBox="0 0 16 16" fill="none" xmlns="http://www.w3.org/2000/svg">
<path d="M5.55415 11.8352L5.64721 10.9901L5.3122 10.8982L4.30717 13.7459L4.64218 13.8562L4.90275 13.452C5.89538 13.7337 6.78873 13.8745 7.58282 13.8745C8.93526 13.8745 10.0147 13.5622 10.8212 12.9375C11.6277 12.3006 12.031 11.4433 12.031 10.3654C12.031 9.65503 11.8387 9.06711 11.454 8.60168C11.0694 8.124 10.5979 7.7688 10.0395 7.53609C9.49361 7.29113 8.94146 7.06453 8.38312 6.85631C7.83718 6.64809 7.37189 6.37252 6.98726 6.02958C6.6026 5.68662 6.4103 5.2763 6.4103 4.79863C6.4103 4.32095 6.55918 3.96575 6.85697 3.73304C7.15475 3.48808 7.57662 3.3656 8.12255 3.3656C8.91665 3.3656 9.84102 3.70854 10.8957 4.39443L11.026 5.18444H11.3796L11.5285 2.07953H11.1748L11.0446 2.55721C10.2753 2.32451 9.52462 2.20815 8.79256 2.20815C7.60143 2.20815 6.62742 2.48985 5.87055 3.05326C5.12609 3.60444 4.75385 4.32707 4.75385 5.22118C4.75385 5.79686 4.89655 6.2929 5.18193 6.70933C5.4673 7.12579 5.82714 7.44423 6.2614 7.6647C6.69566 7.87292 7.16095 8.09338 7.65727 8.3261C8.16598 8.54656 8.63748 8.74866 9.07175 8.93238C9.50601 9.11611 9.86585 9.38557 10.1512 9.74077C10.4366 10.0837 10.5793 10.5063 10.5793 11.0085C10.5793 11.4984 10.3622 11.8964 9.92787 12.2026C9.49361 12.5088 8.89803 12.6619 8.14116 12.6619C7.38429 12.6619 6.52197 12.3864 5.55415 11.8352Z" fill="#131416"/>
<path fill-rule="evenodd" clip-rule="evenodd" d="M6.69951 10.2856L6.58864 11.2925C7.2171 11.5861 7.73042 11.7052 8.14113 11.7052C8.77762 11.7052 9.15055 11.575 9.36465 11.424C9.56674 11.2815 9.61018 11.163 9.61018 11.0085C9.61018 10.697 9.52671 10.4975 9.40241 10.3481L9.39714 10.3418L9.39197 10.3354C9.20951 10.1083 8.98092 9.93491 8.69004 9.81185L9.0717 8.93239C9.50598 9.11611 9.8658 9.38557 10.1512 9.74076C10.4365 10.0837 10.5792 10.5063 10.5792 11.0085C10.5792 11.4984 10.3621 11.8964 9.92784 12.2026C9.49356 12.5088 8.89798 12.662 8.14113 12.662C7.48504 12.662 6.74972 12.4549 5.93514 12.0407C5.81 11.9771 5.683 11.9086 5.55412 11.8352L5.64717 10.9901L5.31217 10.8982L4.30714 13.7459L4.64215 13.8562L4.9027 13.452C5.0684 13.499 5.23131 13.5421 5.39145 13.5813C6.19079 13.7768 6.92123 13.8745 7.58278 13.8745C8.93521 13.8745 10.0147 13.5622 10.8212 12.9375C11.6277 12.3006 12.0309 11.4433 12.0309 10.3654C12.0309 9.65502 11.8386 9.06711 11.454 8.60169C11.0693 8.12401 10.5979 7.76882 10.0395 7.5361C9.49356 7.29114 8.94141 7.06454 8.38306 6.85632C7.83713 6.64811 7.37184 6.37253 6.98721 6.02957C6.60257 5.68662 6.41025 5.2763 6.41025 4.79862C6.41025 4.32095 6.55914 3.96575 6.85692 3.73303C7.1547 3.48807 7.57657 3.36559 8.12251 3.36559C8.80537 3.36559 9.58458 3.6192 10.4601 4.12641C10.6027 4.20902 10.7479 4.29836 10.8956 4.39444L11.0259 5.18444H11.3795L11.5284 2.07954H11.1748L11.0445 2.55722C10.8761 2.50627 10.7085 2.46089 10.5419 2.42109C10.516 2.41492 10.4902 2.40887 10.4643 2.40296C9.89667 2.27308 9.33941 2.20814 8.79253 2.20814C7.60138 2.20814 6.62738 2.48984 5.87051 3.05327C5.12604 3.60443 4.75382 4.32707 4.75382 5.2212C4.75382 5.79685 4.8965 6.29291 5.18188 6.70935C5.46726 7.12578 5.82709 7.44424 6.26135 7.6647C6.69563 7.87292 7.16092 8.09339 7.65722 8.32609C8.16594 8.54657 8.63743 8.74867 9.0717 8.93239L8.69004 9.81185C8.25275 9.62685 7.77862 9.42362 7.26774 9.20222L7.25453 9.19648L7.2415 9.19038C6.74299 8.95664 6.27515 8.73497 5.83804 8.52538L5.82808 8.5206L5.81823 8.5156C5.23297 8.21848 4.75177 7.78908 4.37928 7.24552C3.97026 6.64867 3.78476 5.95943 3.78476 5.2212C3.78476 4.01668 4.30817 3.01448 5.28814 2.28852C6.25196 1.57146 7.44612 1.25135 8.79253 1.25135C9.31044 1.25135 9.83184 1.30233 10.356 1.40224L10.4322 1.12274H12.5445L12.3038 6.14123H10.2019L10.0095 4.97485C9.20209 4.50092 8.58095 4.32239 8.12251 4.32239C7.71189 4.32239 7.54165 4.41513 7.47722 4.46814L7.46787 4.47582L7.45834 4.48326C7.4424 4.49573 7.43021 4.50906 7.41732 4.53988C7.40175 4.57702 7.37931 4.65586 7.37931 4.79862C7.37931 4.98466 7.43919 5.14339 7.63668 5.31946C7.92207 5.57391 8.28098 5.79131 8.72906 5.96258C9.30218 6.17639 9.86886 6.40886 10.4291 6.65994C11.1326 6.95557 11.7288 7.40702 12.2088 8.00164C12.7565 8.6669 13 9.47878 13 10.3654C13 11.7148 12.4776 12.8546 11.4265 13.6847L11.4229 13.6876L11.4193 13.6903C10.3946 14.484 9.08267 14.8313 7.58278 14.8313C6.8812 14.8313 6.13267 14.7354 5.34136 14.5534L5.05345 15L3.0688 14.347L4.69603 9.73626L6.69951 10.2856Z" fill="#131416"/>
<path d="M5.23121 11.3674L5.32428 10.5223L4.98927 10.4304L3.98425 13.2781L4.31925 13.3884L4.5798 12.9842C5.57243 13.2659 6.46578 13.4067 7.25987 13.4067C8.61232 13.4067 9.69178 13.0944 10.4983 12.4698C11.3048 11.8329 11.708 10.9755 11.708 9.89765C11.708 9.18725 11.5157 8.59934 11.1311 8.1339C10.7464 7.65622 10.2749 7.30103 9.71659 7.06831C9.17066 6.82335 8.61852 6.59675 8.06017 6.38853C7.51424 6.18032 7.04894 5.90474 6.66431 5.5618C6.27966 5.21884 6.08735 4.80853 6.08735 4.33085C6.08735 3.85317 6.23623 3.49798 6.53403 3.26526C6.83181 3.0203 7.25367 2.89782 7.79962 2.89782C8.5937 2.89782 9.51809 3.24076 10.5727 3.92665L10.703 4.71667H11.0566L11.2055 1.61176H10.8519L10.7216 2.08943C9.95235 1.85672 9.20168 1.74036 8.46963 1.74036C7.27848 1.74036 6.30449 2.02207 5.54762 2.58548C4.80314 3.13666 4.43092 3.85929 4.43092 4.75341C4.43092 5.32908 4.5736 5.82512 4.85899 6.24156C5.14437 6.65801 5.50419 6.97645 5.93845 7.19693C6.37273 7.40514 6.838 7.6256 7.33433 7.85832C7.84303 8.07878 8.31454 8.28088 8.7488 8.46462C9.18308 8.64833 9.5429 8.91779 9.82826 9.27299C10.1136 9.61593 10.2563 10.0385 10.2563 10.5407C10.2563 11.0306 10.0392 11.4287 9.60492 11.7349C9.17066 12.0411 8.57509 12.1942 7.81822 12.1942C7.06134 12.1942 6.19902 11.9186 5.23121 11.3674Z" fill="url(#paint0_linear_2_238)"/>
<path style="mix-blend-mode:overlay" d="M5.23121 11.3674L5.32428 10.5223L4.98927 10.4304L3.98425 13.2781L4.31925 13.3884L4.5798 12.9842C5.57243 13.2659 6.46578 13.4067 7.25987 13.4067C8.61232 13.4067 9.69178 13.0944 10.4983 12.4698C11.3048 11.8329 11.708 10.9755 11.708 9.89765C11.708 9.18725 11.5157 8.59934 11.1311 8.1339C10.7464 7.65622 10.2749 7.30103 9.71659 7.06831C9.17066 6.82335 8.61852 6.59675 8.06017 6.38853C7.51424 6.18032 7.04894 5.90474 6.66431 5.5618C6.27966 5.21884 6.08735 4.80853 6.08735 4.33085C6.08735 3.85317 6.23623 3.49798 6.53403 3.26526C6.83181 3.0203 7.25367 2.89782 7.79962 2.89782C8.5937 2.89782 9.51809 3.24076 10.5727 3.92665L10.703 4.71667H11.0566L11.2055 1.61176H10.8519L10.7216 2.08943C9.95235 1.85672 9.20168 1.74036 8.46963 1.74036C7.27848 1.74036 6.30449 2.02207 5.54762 2.58548C4.80314 3.13666 4.43092 3.85929 4.43092 4.75341C4.43092 5.32908 4.5736 5.82512 4.85899 6.24156C5.14437 6.65801 5.50419 6.97645 5.93845 7.19693C6.37273 7.40514 6.838 7.6256 7.33433 7.85832C7.84303 8.07878 8.31454 8.28088 8.7488 8.46462C9.18308 8.64833 9.5429 8.91779 9.82826 9.27299C10.1136 9.61593 10.2563 10.0385 10.2563 10.5407C10.2563 11.0306 10.0392 11.4287 9.60492 11.7349C9.17066 12.0411 8.57509 12.1942 7.81822 12.1942C7.06134 12.1942 6.19902 11.9186 5.23121 11.3674Z" fill="url(#paint1_radial_2_238)"/>
<path fill-rule="evenodd" clip-rule="evenodd" d="M6.16072 9.93524L6.05297 10.9138C6.75688 11.2601 7.34129 11.4065 7.81825 11.4065C8.47945 11.4065 8.89805 11.2717 9.15732 11.0888L9.60496 11.7077C9.17068 12.0139 8.57512 12.167 7.81825 12.167C7.11478 12.167 6.3202 11.929 5.43452 11.4528C5.36729 11.4167 5.29952 11.3792 5.23124 11.3403L5.32429 10.4952L4.98929 10.4033L3.98426 13.251L4.31927 13.3612L4.57984 12.957C4.6793 12.9853 4.77777 13.0121 4.87527 13.0375C5.7505 13.2656 6.54539 13.3796 7.2599 13.3796C8.61233 13.3796 9.69182 13.0673 10.4983 12.4426C11.3048 11.8057 11.7081 10.9483 11.7081 9.8705C11.7081 9.1601 11.5157 8.57219 11.1311 8.10675C10.7465 7.62907 10.275 7.27388 9.71663 7.04116C9.17068 6.7962 8.61855 6.5696 8.0602 6.36138C7.51425 6.15317 7.04896 5.87759 6.66433 5.53465C6.27969 5.19169 6.08737 4.78138 6.08737 4.3037C6.08737 3.82602 6.23626 3.47083 6.53404 3.23811C6.83182 2.99315 7.25369 2.87067 7.79963 2.87067C8.53241 2.87067 9.37612 3.16269 10.3308 3.74676C10.4107 3.79563 10.4913 3.84655 10.5728 3.8995L10.703 4.68952H11.0567L11.2055 1.58461H10.8519L10.7217 2.06228C10.6193 2.03134 10.5174 2.00245 10.4157 1.97561C10.324 1.95141 10.2326 1.92888 10.1415 1.90802C9.5738 1.77815 9.01653 1.71322 8.46965 1.71322C7.2785 1.71322 6.3045 1.99492 5.54763 2.55833C4.80318 3.10951 4.43094 3.83214 4.43094 4.72626C4.43094 5.30193 4.57362 5.79797 4.859 6.21441C5.14438 6.63084 5.5042 6.9493 5.93847 7.16978C6.37275 7.378 6.83804 7.59845 7.33434 7.83117C7.84306 8.05163 8.31455 8.25373 8.74882 8.43745L8.44546 9.13648C8.00879 8.95174 7.5352 8.74875 7.02477 8.52753L7.01428 8.52298L7.00393 8.51812C6.50586 8.2846 6.03854 8.06317 5.60202 7.85386L5.59409 7.85006L5.58627 7.84609C5.03198 7.5647 4.57569 7.15806 4.22107 6.64059C3.83743 6.08076 3.66071 5.60702 3.66071 4.90213C3.66071 3.76132 4.15309 2.81647 5.08475 2.12638C6.0061 1.44083 7.15511 1.12861 8.46965 1.12861C9.03359 1.12861 9.6028 1.19064 10.1765 1.31242L10.2617 1H12.0131L11.7913 5.45H10.0481L9.86809 4.35863C9.00543 3.83965 8.3228 3.63115 7.79963 3.63115C7.36124 3.63115 7.13938 3.73 7.02707 3.82238L7.01964 3.82849L7.01207 3.83441C6.94777 3.88466 6.74489 4.04388 6.74489 4.35863C6.74489 4.6045 6.94467 4.93579 7.18055 5.14611C7.48627 5.41869 7.867 5.64804 8.33518 5.8269C8.90523 6.03955 9.4689 6.27079 10.0262 6.5206C10.6999 6.80332 11.2706 7.23504 11.731 7.80565C12.2453 8.42994 12.4783 9.02003 12.4783 9.8705C12.4783 11.1642 11.9804 12.246 10.9794 13.0365L10.9766 13.0387L10.9737 13.041C9.99376 13.7999 8.72954 14.1401 7.2599 14.1401C6.53636 14.1401 5.75734 14.0353 4.92683 13.8351L4.64617 14.2704L3 13.7287L4.49957 9.47974L6.16072 9.93524ZM9.8283 9.24584C10.1137 9.58878 10.2564 10.0114 10.2564 10.5135C10.2564 11.0034 10.0392 11.4015 9.60496 11.7077L9.15732 11.0888C9.40704 10.9128 9.48613 10.7369 9.48613 10.5135C9.48613 10.1629 9.39051 9.9177 9.23317 9.7286L9.22896 9.72357L9.22487 9.71845C9.02128 9.46507 8.76576 9.27198 8.44546 9.13648L8.74882 8.43745C9.1831 8.62118 9.54292 8.89064 9.8283 9.24584Z" fill="url(#paint2_linear_2_238)"/>
<path fill-rule="evenodd" clip-rule="evenodd" d="M10.354 2.12427C9.71209 1.95963 9.08333 1.87731 8.46775 1.87731C7.27697 1.87731 6.30326 2.15899 5.54662 2.72235C4.80238 3.27347 4.43026 3.99604 4.43026 4.89006C4.43026 5.46567 4.57291 5.96167 4.85818 6.37807C5.14348 6.79447 5.50319 7.11288 5.93733 7.33334C6.37147 7.54154 6.83661 7.76198 7.33278 7.99466C7.84134 8.2151 8.31268 8.41718 8.74682 8.60088C9.18096 8.78459 9.54067 9.05403 9.82597 9.40919C10.1113 9.75211 10.2539 10.1746 10.2539 10.6768C10.2539 11.1666 10.0368 11.5647 9.6027 11.8708C9.16856 12.177 8.57318 12.3301 7.81654 12.3301C7.0599 12.3301 6.19782 12.0545 5.23031 11.5034L5.32333 10.6584L4.98843 10.5665L3.98371 13.4139L4.31863 13.5242L4.57911 13.12C5.57141 13.4017 6.4645 13.5425 7.25835 13.5425C8.61039 13.5425 9.68954 13.2302 10.4958 12.6056C11.302 11.9688 11.7052 11.1115 11.7052 10.0338C11.7052 9.32347 11.5129 8.73561 11.1284 8.27022C10.7439 7.7926 10.2725 7.43744 9.71433 7.20474C9.16856 6.9598 8.61659 6.73323 8.05841 6.52503C7.51263 6.31683 7.04748 6.04127 6.66297 5.69837C6.27845 5.35545 6.08619 4.94518 6.08619 4.46754C6.08619 3.98992 6.23504 3.63475 6.53273 3.40205C6.83042 3.15711 7.25215 3.03465 7.79793 3.03465C8.59178 3.03465 9.51588 3.37755 10.5702 4.0634L10.7005 4.85332H11.054L11.2028 1.74872H10.8493L10.7191 2.22635C10.5969 2.1894 10.4752 2.15536 10.354 2.12427ZM10.7804 2.6367L10.6079 2.58448C9.87134 2.36163 9.15837 2.25188 8.46775 2.25188C7.33794 2.25188 6.45059 2.51844 5.77503 3.02143L5.77423 3.02201C5.12246 3.50466 4.80964 4.11769 4.80964 4.89006C4.80964 5.40203 4.93553 5.82241 5.17242 6.16818C5.42278 6.53362 5.73376 6.80798 6.10712 6.99833C6.53752 7.20472 6.99861 7.42324 7.49044 7.65392C7.99618 7.87313 8.46479 8.07402 8.89627 8.25659C9.38556 8.46363 9.79595 8.76987 10.1212 9.17394C10.4681 9.59217 10.6333 10.1011 10.6333 10.6768C10.6333 11.2979 10.3482 11.8053 9.8232 12.1756C9.30287 12.5426 8.62031 12.7047 7.81654 12.7047C6.969 12.7047 6.04031 12.3973 5.04073 11.8279L4.96111 11.7825L4.62236 12.7425L4.68394 12.76C5.65179 13.0348 6.50875 13.168 7.25835 13.168C8.55179 13.168 9.53946 12.8698 10.2602 12.3121C10.9697 11.751 11.3258 11.0046 11.3258 10.0338C11.3258 9.39329 11.154 8.8938 10.8344 8.507L10.8329 8.50516L10.8314 8.50329C10.4856 8.07375 10.0652 7.75762 9.56677 7.54982L9.56203 7.54783L9.55735 7.54574C9.01907 7.30416 8.47475 7.08073 7.92434 6.87545L7.92301 6.87494L7.92169 6.87444C7.33817 6.65184 6.83179 6.35366 6.40868 5.97634C5.95088 5.56808 5.70681 5.05932 5.70681 4.46754C5.70681 3.91139 5.88348 3.43385 6.2935 3.11132C6.68214 2.79335 7.20103 2.66007 7.79793 2.66007C8.68392 2.66007 9.66517 3.03435 10.7286 3.71805L10.7804 2.6367Z" fill="url(#paint3_linear_2_238)" fill-opacity="0.3"/>
<path fill-rule="evenodd" clip-rule="evenodd" d="M10.6602 2.20878C9.91172 1.9878 9.18091 1.87731 8.46775 1.87731C7.27697 1.87731 6.30326 2.159 5.54662 2.72237C4.80238 3.27347 4.43026 3.99604 4.43026 4.89008C4.43026 5.46568 4.57291 5.96169 4.85818 6.37807C5.14348 6.79447 5.50319 7.11289 5.93733 7.33334C6.37147 7.54154 6.83661 7.76198 7.33278 7.99468C7.84134 8.21512 8.31268 8.4172 8.74682 8.6009C9.18096 8.7846 9.54067 9.05404 9.82597 9.40919C10.1113 9.75211 10.2539 10.1746 10.2539 10.6768C10.2539 11.1666 10.0368 11.5647 9.6027 11.8708C9.16856 12.177 8.57318 12.3301 7.81654 12.3301C7.0599 12.3301 6.19782 12.0545 5.23031 11.5034L5.32333 10.6584L4.98843 10.5665L3.98371 13.414L4.31863 13.5242L4.57911 13.12C5.57141 13.4017 6.4645 13.5425 7.25835 13.5425C8.61039 13.5425 9.68954 13.2302 10.4958 12.6056C11.302 11.9688 11.7052 11.1115 11.7052 10.0338C11.7052 9.32347 11.5129 8.73562 11.1284 8.27022C10.7439 7.7926 10.2725 7.43744 9.71433 7.20475C9.16856 6.95981 8.61659 6.73323 8.05841 6.52503C7.51263 6.31685 7.04748 6.04129 6.66297 5.69837C6.27845 5.35546 6.08619 4.94518 6.08619 4.46756C6.08619 3.98992 6.23504 3.63475 6.53273 3.40207C6.83042 3.15713 7.25215 3.03465 7.79793 3.03465C8.59178 3.03465 9.51588 3.37757 10.5702 4.0634L10.7005 4.85332H11.054L11.2028 1.74872H10.8493L10.7191 2.22636C10.6994 2.22042 10.6798 2.21456 10.6602 2.20878ZM10.7619 2.30277L10.701 2.28437C9.93726 2.05327 9.19289 1.93798 8.46775 1.93798C7.28684 1.93798 6.32711 2.21722 5.58362 2.7708C4.85435 3.31083 4.4917 4.01575 4.4917 4.89008C4.4917 5.45538 4.63164 5.93912 4.90909 6.34407C5.18872 6.75221 5.54053 7.06349 5.9648 7.27906C6.39835 7.48696 6.86285 7.70711 7.35832 7.93949C7.86644 8.15974 8.33734 8.36161 8.77103 8.54513C9.21409 8.73261 9.58202 9.008 9.87379 9.37108C10.1691 9.7262 10.3154 10.1627 10.3154 10.6768C10.3154 11.1879 10.0873 11.6037 9.63841 11.9202C9.19031 12.2362 8.58081 12.3908 7.81654 12.3908C7.04517 12.3908 6.1723 12.11 5.19961 11.556L5.16489 11.5362L5.25661 10.703L5.02751 10.6402L4.06223 13.3758L4.29253 13.4516L4.55193 13.0492L4.59608 13.0617C5.58444 13.3423 6.47166 13.4819 7.25835 13.4819C8.60088 13.4819 9.6652 13.1719 10.4576 12.5581C11.2482 11.9336 11.6437 11.0942 11.6437 10.0338C11.6437 9.33478 11.4548 8.76123 11.0808 8.30858L11.0803 8.30798C10.702 7.83815 10.2389 7.4893 9.69043 7.26065L9.6889 7.26C9.14434 7.0156 8.59361 6.78953 8.03669 6.5818L8.03626 6.58163C7.48438 6.37111 7.01255 6.09189 6.62177 5.74339C6.22538 5.3899 6.02474 4.96367 6.02474 4.46756C6.02474 3.97724 6.17807 3.60222 6.49398 3.35497C6.80644 3.09818 7.24393 2.97399 7.79793 2.97399C8.60897 2.97399 9.54507 3.32391 10.604 4.01275L10.6265 4.02738L10.7527 4.79266H10.9953L11.1384 1.80939H10.8964L10.7619 2.30277Z" fill="url(#paint4_linear_2_238)"/>
<path fill-rule="evenodd" clip-rule="evenodd" d="M10.6602 2.20878C9.91172 1.9878 9.18091 1.87731 8.46775 1.87731C7.27697 1.87731 6.30326 2.159 5.54662 2.72237C4.80238 3.27347 4.43026 3.99604 4.43026 4.89008C4.43026 5.46568 4.57291 5.96169 4.85818 6.37807C5.14348 6.79447 5.50319 7.11289 5.93733 7.33334C6.37147 7.54154 6.83661 7.76198 7.33278 7.99468C7.84134 8.21512 8.31268 8.4172 8.74682 8.6009C9.18096 8.7846 9.54067 9.05404 9.82597 9.40919C10.1113 9.75211 10.2539 10.1746 10.2539 10.6768C10.2539 11.1666 10.0368 11.5647 9.6027 11.8708C9.16856 12.177 8.57318 12.3301 7.81654 12.3301C7.0599 12.3301 6.19782 12.0545 5.23031 11.5034L5.32333 10.6584L4.98843 10.5665L3.98371 13.414L4.31863 13.5242L4.57911 13.12C5.57141 13.4017 6.4645 13.5425 7.25835 13.5425C8.61039 13.5425 9.68954 13.2302 10.4958 12.6056C11.302 11.9688 11.7052 11.1115 11.7052 10.0338C11.7052 9.32347 11.5129 8.73562 11.1284 8.27022C10.7439 7.7926 10.2725 7.43744 9.71433 7.20475C9.16856 6.95981 8.61659 6.73323 8.05841 6.52503C7.51263 6.31685 7.04748 6.04129 6.66297 5.69837C6.27845 5.35546 6.08619 4.94518 6.08619 4.46756C6.08619 3.98992 6.23504 3.63475 6.53273 3.40207C6.83042 3.15713 7.25215 3.03465 7.79793 3.03465C8.59178 3.03465 9.51588 3.37757 10.5702 4.0634L10.7005 4.85332H11.054L11.2028 1.74872H10.8493L10.7191 2.22636C10.6994 2.22042 10.6798 2.21456 10.6602 2.20878ZM10.7619 2.30277L10.701 2.28437C9.93726 2.05327 9.19289 1.93798 8.46775 1.93798C7.28684 1.93798 6.32711 2.21722 5.58362 2.7708C4.85435 3.31083 4.4917 4.01575 4.4917 4.89008C4.4917 5.45538 4.63164 5.93912 4.90909 6.34407C5.18872 6.75221 5.54053 7.06349 5.9648 7.27906C6.39835 7.48696 6.86285 7.70711 7.35832 7.93949C7.86644 8.15974 8.33734 8.36161 8.77103 8.54513C9.21409 8.73261 9.58202 9.008 9.87379 9.37108C10.1691 9.7262 10.3154 10.1627 10.3154 10.6768C10.3154 11.1879 10.0873 11.6037 9.63841 11.9202C9.19031 12.2362 8.58081 12.3908 7.81654 12.3908C7.04517 12.3908 6.1723 12.11 5.19961 11.556L5.16489 11.5362L5.25661 10.703L5.02751 10.6402L4.06223 13.3758L4.29253 13.4516L4.55193 13.0492L4.59608 13.0617C5.58444 13.3423 6.47166 13.4819 7.25835 13.4819C8.60088 13.4819 9.6652 13.1719 10.4576 12.5581C11.2482 11.9336 11.6437 11.0942 11.6437 10.0338C11.6437 9.33478 11.4548 8.76123 11.0808 8.30858L11.0803 8.30798C10.702 7.83815 10.2389 7.4893 9.69043 7.26065L9.6889 7.26C9.14434 7.0156 8.59361 6.78953 8.03669 6.5818L8.03626 6.58163C7.48438 6.37111 7.01255 6.09189 6.62177 5.74339C6.22538 5.3899 6.02474 4.96367 6.02474 4.46756C6.02474 3.97724 6.17807 3.60222 6.49398 3.35497C6.80644 3.09818 7.24393 2.97399 7.79793 2.97399C8.60897 2.97399 9.54507 3.32391 10.604 4.01275L10.6265 4.02738L10.7527 4.79266H10.9953L11.1384 1.80939H10.8964L10.7619 2.30277Z" fill="url(#paint5_linear_2_238)"/>
<path fill-rule="evenodd" clip-rule="evenodd" d="M6.11075 10.1315L6.00381 11.1032C6.72411 11.4614 7.3244 11.6144 7.81649 11.6144C8.48303 11.6144 8.91179 11.4785 9.18115 11.2885C9.44154 11.1049 9.5287 10.916 9.5287 10.677C9.5287 10.3176 9.43036 10.062 9.26557 9.86394L9.26163 9.8592L9.25777 9.85439C9.04946 9.59508 8.78795 9.39757 8.46112 9.25928C8.02474 9.07461 7.55141 8.87168 7.04123 8.65054L7.03135 8.64627L7.0216 8.64169C6.52378 8.40822 6.05673 8.18688 5.62047 7.97766L5.61301 7.97407L5.60563 7.97034C5.05851 7.69251 4.60797 7.29104 4.25751 6.77953C3.87972 6.22814 3.70505 5.58759 3.70505 4.89035C3.70505 3.7641 4.19025 2.83233 5.11072 2.15041C6.02222 1.47204 7.1607 1.16161 8.46769 1.16161C9.04172 1.16161 9.62149 1.22629 10.2061 1.35335L10.2935 1.03302H11.9631L11.7456 5.5696H10.0837L9.90664 4.49542C9.0321 3.96644 8.33577 3.75093 7.79789 3.75093C7.3534 3.75093 7.11998 3.85112 6.99691 3.95239L6.98993 3.95814L6.98279 3.96372C6.90489 4.0246 6.8113 4.14355 6.8113 4.46783C6.8113 4.72728 6.90452 4.94928 7.14898 5.16732C7.45921 5.44397 7.84476 5.67597 8.3173 5.85652C8.88649 6.06891 9.44931 6.29985 10.0058 6.54934C10.6726 6.82914 11.2374 7.25638 11.6932 7.82155C12.1998 8.43648 12.4303 9.19194 12.4303 10.0341C12.4303 11.315 11.9381 12.3836 10.9488 13.165L10.9461 13.1671L10.9434 13.1692C9.97381 13.9203 8.72071 14.2588 7.25832 14.2588C6.53023 14.2588 5.74466 14.152 4.90544 13.9475L4.6264 14.3805L3.05706 13.864L4.52731 9.69726L6.11075 10.1315ZM4.83093 13.1893C5.72307 13.425 6.53221 13.5428 7.25832 13.5428C8.61034 13.5428 9.68948 13.2305 10.4957 12.6059C11.302 11.9691 11.7051 11.1118 11.7051 10.0341C11.7051 9.32375 11.5129 8.73589 11.1283 8.27051C10.7438 7.79288 10.2725 7.43772 9.7143 7.20502C9.16853 6.96008 8.61654 6.73352 8.05837 6.52532C7.5126 6.31712 7.04745 6.04156 6.66292 5.69865C6.27839 5.35573 6.08614 4.94547 6.08614 4.46783C6.08614 3.9902 6.23498 3.63504 6.53267 3.40234C6.83038 3.1574 7.2521 3.03494 7.79789 3.03494C8.54156 3.03494 9.39956 3.33588 10.3718 3.93778C10.4374 3.97837 10.5035 4.02035 10.5702 4.06368L10.7004 4.85361H11.0539L11.2028 1.74901H10.8492L10.719 2.22663C10.6316 2.20018 10.5444 2.17524 10.4575 2.1518C10.3504 2.12292 10.2436 2.09631 10.1373 2.07201C9.57039 1.9424 9.01386 1.8776 8.46769 1.8776C7.27692 1.8776 6.30321 2.15927 5.54657 2.72264C4.80232 3.27376 4.43021 3.99632 4.43021 4.89035C4.43021 5.46595 4.57286 5.96196 4.85815 6.37836C5.14344 6.79476 5.50316 7.11318 5.93729 7.33362C6.37143 7.54182 6.83658 7.76226 7.33274 7.99495C7.8413 8.21541 8.31265 8.41747 8.74679 8.60117C9.18092 8.78489 9.54064 9.05431 9.82593 9.40948C10.1112 9.7524 10.2539 10.1749 10.2539 10.677C10.2539 11.1669 10.0368 11.5649 9.60266 11.8711C9.16853 12.1773 8.57313 12.3304 7.81649 12.3304C7.10269 12.3304 6.29507 12.0851 5.39362 11.5947C5.33951 11.5652 5.28505 11.5349 5.23026 11.5037L5.3233 10.6587L4.9884 10.5668L3.98368 13.4142L4.31858 13.5245L4.57906 13.1203C4.66374 13.1443 4.74771 13.1674 4.83093 13.1893Z" fill="url(#paint6_linear_2_238)"/>
<defs>
<linearGradient id="paint0_linear_2_238" x1="40.1394" y1="16.9969" x2="39.9643" y2="-0.858765" gradientUnits="userSpaceOnUse">
<stop stop-color="#442C11"/>
<stop offset="0.0625" stop-color="#5F3411"/>
<stop offset="0.161458" stop-color="#934600"/>
<stop offset="0.676843" stop-color="#FE9326"/>
<stop offset="0.77984" stop-color="#FFBA25"/>
<stop offset="0.900142" stop-color="#FFB625"/>
<stop offset="1" stop-color="#FFB828"/>
</linearGradient>
<radialGradient id="paint1_radial_2_238" cx="0" cy="0" r="1" gradientUnits="userSpaceOnUse" gradientTransform="translate(31.4098 -14.6493) rotate(78.7984) scale(28.3856 36.1426)">
<stop stop-color="white" stop-opacity="0.49"/>
<stop offset="1" stop-color="white" stop-opacity="0"/>
</radialGradient>
<linearGradient id="paint2_linear_2_238" x1="40.1394" y1="17.3215" x2="39.9643" y2="-0.534125" gradientUnits="userSpaceOnUse">
<stop offset="0.0390312" stop-color="#82450E"/>
<stop offset="0.101687" stop-color="#865113"/>
<stop offset="0.313604" stop-color="#864000"/>
<stop offset="0.479662" stop-color="#8B4809"/>
<stop offset="0.588542" stop-color="#FE9326"/>
<stop offset="0.738526" stop-color="#FFDC25"/>
<stop offset="0.900142" stop-color="#FFE925"/>
<stop offset="1" stop-color="#FFE81E"/>
</linearGradient>
<linearGradient id="paint3_linear_2_238" x1="46.1813" y1="0.541907" x2="46.1813" y2="14.5895" gradientUnits="userSpaceOnUse">
<stop stop-color="#D19700"/>
<stop offset="1" stop-color="#794900"/>
</linearGradient>
<linearGradient id="paint4_linear_2_238" x1="46.1813" y1="1.08342" x2="46.1813" y2="13.9772" gradientUnits="userSpaceOnUse">
<stop stop-color="#FFED47"/>
<stop offset="1" stop-color="#69440D"/>
</linearGradient>
<linearGradient id="paint5_linear_2_238" x1="46.1813" y1="1.08342" x2="46.1813" y2="13.9772" gradientUnits="userSpaceOnUse">
<stop stop-color="#FFED47"/>
<stop offset="1" stop-color="#975B00"/>
</linearGradient>
<linearGradient id="paint6_linear_2_238" x1="40.1388" y1="17.1457" x2="39.9638" y2="-0.709971" gradientUnits="userSpaceOnUse">
<stop offset="0.0390312" stop-color="#57350D"/>
<stop offset="0.192708" stop-color="#4E2507"/>
<stop offset="0.416667" stop-color="#592F08"/>
<stop offset="1" stop-color="#813409"/>
</linearGradient>
</defs>
</svg>
